<svg height="268" version="1.1" width="110" xmlns="http://www.w3.org/2000/svg" xmlns:xlink="http://www.w3.org/1999/xlink" style="overflow: hidden; position: absolute;">
<desc>Create with draw2d JS graph library and RaphaelJS</desc>
<defs>
<linearGradient id="890-_4F6870-rgba_103_135_146_1_" x1="0" y1="1" x2="6.123233995736766e-17" y2="0" gradientTransform="matrix(1,0,0,1,0,0)">
<stop offset="0%" stop-color="#4f6870" stop-opacity="1">
</stop>
<stop offset="100%" stop-color="#678792" stop-opacity="1">
</stop>
</linearGradient>
<linearGradient id="1190-_4F6870-rgba_103_135_146_1_" x1="0" y1="1" x2="6.123233995736766e-17" y2="0" gradientTransform="matrix(1,0,0,1,0,0)">
<stop offset="0%" stop-color="#4f6870" stop-opacity="1">
</stop>
<stop offset="100%" stop-color="#678792" stop-opacity="1">
</stop>
</linearGradient>
<linearGradient id="1490-_4F6870-rgba_103_135_146_1_" x1="0" y1="1" x2="6.123233995736766e-17" y2="0" gradientTransform="matrix(1,0,0,1,0,0)">
<stop offset="0%" stop-color="#4f6870" stop-opacity="1">
</stop>
<stop offset="100%" stop-color="#678792" stop-opacity="1">
</stop>
</linearGradient>
<linearGradient id="1790-_4F6870-rgba_103_135_146_1_" x1="0" y1="1" x2="6.123233995736766e-17" y2="0" gradientTransform="matrix(1,0,0,1,0,0)">
<stop offset="0%" stop-color="#4f6870" stop-opacity="1">
</stop>
<stop offset="100%" stop-color="#678792" stop-opacity="1">
</stop>
</linearGradient>
<linearGradient id="2390-_4F6870-rgba_103_135_146_1_" x1="0" y1="1" x2="6.123233995736766e-17" y2="0" gradientTransform="matrix(1,0,0,1,0,0)">
<stop offset="0%" stop-color="#4f6870" stop-opacity="1">
</stop>
<stop offset="100%" stop-color="#678792" stop-opacity="1">
</stop>
</linearGradient>
<linearGradient id="2690-_4F6870-rgba_103_135_146_1_" x1="0" y1="1" x2="6.123233995736766e-17" y2="0" gradientTransform="matrix(1,0,0,1,0,0)">
<stop offset="0%" stop-color="#4f6870" stop-opacity="1">
</stop>
<stop offset="100%" stop-color="#678792" stop-opacity="1">
</stop>
</linearGradient>
<linearGradient id="2990-_4F6870-rgba_103_135_146_1_" x1="0" y1="1" x2="6.123233995736766e-17" y2="0" gradientTransform="matrix(1,0,0,1,0,0)">
<stop offset="0%" stop-color="#4f6870" stop-opacity="1">
</stop>
<stop offset="100%" stop-color="#678792" stop-opacity="1">
</stop>
</linearGradient>
<linearGradient id="3290-_4F6870-rgba_103_135_146_1_" x1="0" y1="1" x2="6.123233995736766e-17" y2="0" gradientTransform="matrix(1,0,0,1,0,0)">
<stop offset="0%" stop-color="#4f6870" stop-opacity="1">
</stop>
<stop offset="100%" stop-color="#678792" stop-opacity="1">
</stop>
</linearGradient>
</defs>
<rect x="20" y="20" width="73" height="248" rx="3" ry="3" fill="#dbddde" stroke="none" class="NodeShapeVertical" style="opacity: 1; cursor: default;" stroke-width="0" fill-opacity="1" stroke-dasharray="none" opacity="1" transform="matrix(1,0,0,1,0,0)">
</rect>
<rect x="20" y="20" width="73" height="24" rx="3" ry="3" fill="#1e90ff" stroke="#1b1b1b" class="draw2d_shape_basic_Label" style="opacity: 1;" stroke-opacity="1" stroke-width="1" fill-opacity="1" stroke-dasharray="none" opacity="1" transform="matrix(1,0,0,1,0,0)">
</rect>
<text style="text-anchor: start; font-family: &quot;Arial&quot;; font-size: 12px; font-weight: normal; opacity: 1;" x="26" y="12" text-anchor="start" font-family="&quot;Arial&quot;" font-size="12px" stroke="#000000" fill="#000000" stroke-scale="true" class="draw2d_shape_basic_Label" font-weight="normal" fill-opacity="1" stroke-opacity="0" stroke-width="0" opacity="1" transform="matrix(1,0,0,1,20,20)">
<tspan dy="4">n00</tspan>
</text>
<rect x="20" y="44" width="73" height="112" rx="3" ry="3" fill="#dbddde" stroke="none" class="FPGAShapeVertical" style="opacity: 1;" stroke-width="0" fill-opacity="1" stroke-dasharray="none" opacity="1" transform="matrix(1,0,0,1,0,0)">
</rect>
<rect x="20" y="44" width="73" height="24" rx="0" ry="0" fill="#f7f7f7" stroke="none" class="draw2d_shape_basic_Label" style="opacity: 1;" stroke-width="0" fill-opacity="1" stroke-dasharray="none" opacity="1" transform="matrix(1,0,0,1,0,0)">
</rect>
<text style="text-anchor: start; font-family: &quot;Arial&quot;; font-size: 12px; font-weight: normal; opacity: 1;" x="25" y="12" text-anchor="start" font-family="&quot;Arial&quot;" font-size="12px" stroke="#000000" fill="#4a4a4a" stroke-scale="true" class="draw2d_shape_basic_Label" font-weight="normal" fill-opacity="1" stroke-opacity="0" stroke-width="0" opacity="1" transform="matrix(1,0,0,1,20,44)">
<tspan dy="4">acl0</tspan>
</text>
<rect x="20" y="68" width="72.33333396911621" height="22" rx="0" ry="0" fill="#000000" stroke="none" class="ChannelShape" style="opacity: 1;" stroke-width="0" fill-opacity="0" stroke-dasharray="none" opacity="1" transform="matrix(1,0,0,1,0,0)">
</rect>
<text style="text-anchor: start; font-family: &quot;Arial&quot;; font-size: 12px; font-weight: normal; opacity: 1;" x="25" y="10" text-anchor="start" font-family="&quot;Arial&quot;" font-size="12px" stroke="#000000" fill="#4a4a4a" stroke-scale="true" class="ChannelShape" font-weight="normal" fill-opacity="1" stroke-opacity="0" stroke-width="0" opacity="1" transform="matrix(1,0,0,1,20,68)">
<tspan dy="4">ch0</tspan>
</text>
<path style="stroke-linecap: round; stroke-linejoin: round; opacity: 1;" fill="none" stroke="#303030" d="M92.33333396911621,191L94.71614646911621,190.85416666666666Q97.09895896911623,190.70833333333331,97.76790428161621,190.36197916666666L97.76790428161621,190.36197916666666Q98.43684959411621,190.015625,99.13509178161621,189.34114583333337L99.13509178161621,189.34114583333337Q99.83333396911623,188.6666666666667,100.53157615661623,187.55468750000003L100.53157615661623,187.55468750000003Q101.22981834411623,186.44270833333334,101.89876365661621,184.78385416666669L101.89876365661621,184.78385416666669Q102.56770896911621,183.125,103.17806053161621,180.80989583333331L103.17806053161621,180.80989583333331Q103.7884120941162,178.49479166666666,104.31087303161621,175.4140625L104.31087303161621,175.4140625Q104.83333396911621,172.33333333333331,105.24349021911621,168.43229166666666L105.24349021911621,168.43229166666666Q105.6536464691162,164.53125,105.94661521911621,159.97395833333331L105.94661521911621,159.97395833333331Q106.23958396911621,155.41666666666663,106.35434964359132,150.41798395619557L106.59356829464112,139.9986827104711Q106.70833396911623,135.00000000000003,106.59356829464112,130.00131728952897L106.35434964359132,119.5820160438044Q106.23958396911621,114.58333333333334,105.94661521911621,110.02604166666666L105.94661521911621,110.02604166666666Q105.6536464691162,105.46874999999999,105.2434902191162,101.56770833333333L105.2434902191162,101.56770833333333Q104.8333339691162,97.66666666666667,104.3108730316162,94.5859375L104.3108730316162,94.5859375Q103.7884120941162,91.50520833333333,103.17806053161621,89.19010416666666L103.17806053161621,89.19010416666666Q102.56770896911621,86.875,101.89876365661621,85.21614583333334L101.89876365661621,85.21614583333334Q101.22981834411621,83.55729166666667,100.53157615661621,82.4453125L100.53157615661621,82.4453125Q99.83333396911623,81.33333333333333,99.13509178161623,80.65885416666667L99.13509178161623,80.65885416666667Q98.43684959411623,79.98437500000001,97.76790428161621,79.63802083333334L97.76790428161621,79.63802083333334Q97.09895896911621,79.29166666666666,94.71614646911621,79.14583333333333L92.33333396911621,79" stroke-linecap="round" stroke-linejoin="round" stroke-opacity="1" stroke-width="4" stroke-dasharray="none" opacity="1">
</path>
<path style="stroke-linecap: round; stroke-linejoin: round; opacity: 1;" fill="none" stroke="#b9dd69" d="M92.33333396911621,191L94.71614646911621,190.85416666666666Q97.09895896911623,190.70833333333331,97.76790428161621,190.36197916666666L97.76790428161621,190.36197916666666Q98.43684959411621,190.015625,99.13509178161621,189.34114583333337L99.13509178161621,189.34114583333337Q99.83333396911623,188.6666666666667,100.53157615661623,187.55468750000003L100.53157615661623,187.55468750000003Q101.22981834411623,186.44270833333334,101.89876365661621,184.78385416666669L101.89876365661621,184.78385416666669Q102.56770896911621,183.125,103.17806053161621,180.80989583333331L103.17806053161621,180.80989583333331Q103.7884120941162,178.49479166666666,104.31087303161621,175.4140625L104.31087303161621,175.4140625Q104.83333396911621,172.33333333333331,105.24349021911621,168.43229166666666L105.24349021911621,168.43229166666666Q105.6536464691162,164.53125,105.94661521911621,159.97395833333331L105.94661521911621,159.97395833333331Q106.23958396911621,155.41666666666663,106.35434964359132,150.41798395619557L106.59356829464112,139.9986827104711Q106.70833396911623,135.00000000000003,106.59356829464112,130.00131728952897L106.35434964359132,119.5820160438044Q106.23958396911621,114.58333333333334,105.94661521911621,110.02604166666666L105.94661521911621,110.02604166666666Q105.6536464691162,105.46874999999999,105.2434902191162,101.56770833333333L105.2434902191162,101.56770833333333Q104.8333339691162,97.66666666666667,104.3108730316162,94.5859375L104.3108730316162,94.5859375Q103.7884120941162,91.50520833333333,103.17806053161621,89.19010416666666L103.17806053161621,89.19010416666666Q102.56770896911621,86.875,101.89876365661621,85.21614583333334L101.89876365661621,85.21614583333334Q101.22981834411621,83.55729166666667,100.53157615661621,82.4453125L100.53157615661621,82.4453125Q99.83333396911623,81.33333333333333,99.13509178161623,80.65885416666667L99.13509178161623,80.65885416666667Q98.43684959411623,79.98437500000001,97.76790428161621,79.63802083333334L97.76790428161621,79.63802083333334Q97.09895896911621,79.29166666666666,94.71614646911621,79.14583333333333L92.33333396911621,79" class="draw2d_Connection" stroke-linecap="round" stroke-linejoin="round" stroke-opacity="1" stroke-width="3" stroke-dasharray="none" opacity="1">
</path>
<ellipse cx="92.33333396911621" cy="79" rx="5" ry="5" fill="url('#890-_4F6870-rgba_103_135_146_1_')" stroke="#1b1b1b" class="draw2d_HybridPort" style="cursor: move; opacity: 1; fill-opacity: 1; display: none;" opacity="1" fill-opacity="1" x="92.33333396911621" y="79" stroke-opacity="1" stroke-width="2" stroke-dasharray="none">
</ellipse>
<rect x="20" y="90" width="72.33333396911621" height="22" rx="0" ry="0" fill="#000000" stroke="none" class="ChannelShape" style="opacity: 1;" stroke-width="0" fill-opacity="0" stroke-dasharray="none" opacity="1" transform="matrix(1,0,0,1,0,0)">
</rect>
<text style="text-anchor: start; font-family: &quot;Arial&quot;; font-size: 12px; font-weight: normal; opacity: 1;" x="25" y="10" text-anchor="start" font-family="&quot;Arial&quot;" font-size="12px" stroke="#000000" fill="#4a4a4a" stroke-scale="true" class="ChannelShape" font-weight="normal" fill-opacity="1" stroke-opacity="0" stroke-width="0" opacity="1" transform="matrix(1,0,0,1,20,90)">
<tspan dy="4">ch1</tspan>
</text>
<path style="stroke-linecap: round; stroke-linejoin: round; opacity: 1; cursor: default;" fill="none" stroke="#303030" d="M92.33333396911621,213L94.71614646911621,212.85416666666669Q97.09895896911623,212.70833333333334,97.76790428161621,212.36197916666669L97.76790428161621,212.36197916666669Q98.43684959411621,212.015625,99.13509178161621,211.34114583333331L99.13509178161621,211.34114583333331Q99.83333396911623,210.66666666666666,100.53157615661623,209.5546875L100.53157615661623,209.5546875Q101.22981834411623,208.44270833333334,101.89876365661621,206.78385416666669L101.89876365661621,206.78385416666669Q102.56770896911621,205.125,103.17806053161621,202.80989583333331L103.17806053161621,202.80989583333331Q103.7884120941162,200.49479166666666,104.31087303161621,197.4140625L104.31087303161621,197.4140625Q104.83333396911621,194.33333333333334,105.24349021911621,190.43229166666669L105.24349021911621,190.43229166666669Q105.6536464691162,186.53125,105.9466152191162,181.97395833333334L105.94661521911621,181.97395833333334Q106.23958396911621,177.41666666666669,106.35434964359132,172.41798395619563L106.59356829464112,161.99868271047106Q106.70833396911623,157,106.59356829464112,152.00131728952894L106.35434964359132,141.58201604380437Q106.23958396911621,136.58333333333331,105.94661521911621,132.02604166666666L105.9466152191162,132.02604166666666Q105.6536464691162,127.46875,105.2434902191162,123.56770833333333L105.2434902191162,123.56770833333333Q104.8333339691162,119.66666666666666,104.3108730316162,116.5859375L104.3108730316162,116.5859375Q103.7884120941162,113.50520833333333,103.17806053161621,111.19010416666666L103.17806053161621,111.19010416666666Q102.56770896911621,108.87499999999999,101.89876365661621,107.21614583333331L101.89876365661621,107.21614583333331Q101.22981834411621,105.55729166666666,100.53157615661623,104.4453125L100.53157615661621,104.4453125Q99.83333396911623,103.33333333333334,99.13509178161623,102.65885416666666L99.13509178161623,102.65885416666666Q98.43684959411623,101.98437499999999,97.76790428161621,101.63802083333331L97.76790428161621,101.63802083333331Q97.09895896911621,101.29166666666666,94.71614646911621,101.14583333333333L92.33333396911621,101" stroke-linecap="round" stroke-linejoin="round" stroke-opacity="1" stroke-width="4" stroke-dasharray="none" opacity="1">
</path>
<path style="stroke-linecap: round; stroke-linejoin: round; opacity: 1; cursor: default;" fill="none" stroke="#f3546a" d="M92.33333396911621,213L94.71614646911621,212.85416666666669Q97.09895896911623,212.70833333333334,97.76790428161621,212.36197916666669L97.76790428161621,212.36197916666669Q98.43684959411621,212.015625,99.13509178161621,211.34114583333331L99.13509178161621,211.34114583333331Q99.83333396911623,210.66666666666666,100.53157615661623,209.5546875L100.53157615661623,209.5546875Q101.22981834411623,208.44270833333334,101.89876365661621,206.78385416666669L101.89876365661621,206.78385416666669Q102.56770896911621,205.125,103.17806053161621,202.80989583333331L103.17806053161621,202.80989583333331Q103.7884120941162,200.49479166666666,104.31087303161621,197.4140625L104.31087303161621,197.4140625Q104.83333396911621,194.33333333333334,105.24349021911621,190.43229166666669L105.24349021911621,190.43229166666669Q105.6536464691162,186.53125,105.9466152191162,181.97395833333334L105.94661521911621,181.97395833333334Q106.23958396911621,177.41666666666669,106.35434964359132,172.41798395619563L106.59356829464112,161.99868271047106Q106.70833396911623,157,106.59356829464112,152.00131728952894L106.35434964359132,141.58201604380437Q106.23958396911621,136.58333333333331,105.94661521911621,132.02604166666666L105.9466152191162,132.02604166666666Q105.6536464691162,127.46875,105.2434902191162,123.56770833333333L105.2434902191162,123.56770833333333Q104.8333339691162,119.66666666666666,104.3108730316162,116.5859375L104.3108730316162,116.5859375Q103.7884120941162,113.50520833333333,103.17806053161621,111.19010416666666L103.17806053161621,111.19010416666666Q102.56770896911621,108.87499999999999,101.89876365661621,107.21614583333331L101.89876365661621,107.21614583333331Q101.22981834411621,105.55729166666666,100.53157615661623,104.4453125L100.53157615661621,104.4453125Q99.83333396911623,103.33333333333334,99.13509178161623,102.65885416666666L99.13509178161623,102.65885416666666Q98.43684959411623,101.98437499999999,97.76790428161621,101.63802083333331L97.76790428161621,101.63802083333331Q97.09895896911621,101.29166666666666,94.71614646911621,101.14583333333333L92.33333396911621,101" class="draw2d_Connection" stroke-linecap="round" stroke-linejoin="round" stroke-opacity="1" stroke-width="3" stroke-dasharray="none" opacity="1">
</path>
<ellipse cx="92.33333396911621" cy="101" rx="5" ry="5" fill="url('#1190-_4F6870-rgba_103_135_146_1_')" stroke="#1b1b1b" class="draw2d_HybridPort" style="cursor: move; opacity: 1; fill-opacity: 1; display: none;" opacity="1" fill-opacity="1" x="92.33333396911621" y="101" stroke-opacity="1" stroke-width="2" stroke-dasharray="none">
</ellipse>
<rect x="20" y="112" width="72.33333396911621" height="22" rx="0" ry="0" fill="#000000" stroke="none" class="ChannelShape" style="opacity: 1;" stroke-width="0" fill-opacity="0" stroke-dasharray="none" opacity="1" transform="matrix(1,0,0,1,0,0)">
</rect>
<text style="text-anchor: start; font-family: &quot;Arial&quot;; font-size: 12px; font-weight: normal; opacity: 1;" x="25" y="10" text-anchor="start" font-family="&quot;Arial&quot;" font-size="12px" stroke="#000000" fill="#4a4a4a" stroke-scale="true" class="ChannelShape" font-weight="normal" fill-opacity="1" stroke-opacity="0" stroke-width="0" opacity="1" transform="matrix(1,0,0,1,20,112)">
<tspan dy="4">ch2</tspan>
</text>
<path style="stroke-linecap: round; stroke-linejoin: round; opacity: 1; cursor: default;" fill="none" stroke="#303030" d="M92.33333396911621,235L94.71614646911621,234.85416666666666Q97.09895896911623,234.70833333333331,97.76790428161621,234.36197916666666L97.76790428161621,234.36197916666666Q98.43684959411621,234.015625,99.13509178161621,233.34114583333334L99.13509178161621,233.34114583333334Q99.83333396911623,232.66666666666669,100.53157615661623,231.5546875L100.53157615661623,231.5546875Q101.22981834411623,230.44270833333331,101.89876365661621,228.78385416666666L101.89876365661621,228.78385416666666Q102.56770896911621,227.125,103.17806053161621,224.80989583333331L103.17806053161621,224.80989583333331Q103.7884120941162,222.49479166666666,104.31087303161621,219.4140625L104.31087303161621,219.4140625Q104.83333396911621,216.33333333333331,105.24349021911621,212.43229166666666L105.24349021911621,212.43229166666666Q105.6536464691162,208.53125,105.94661521911621,203.97395833333331L105.94661521911621,203.97395833333331Q106.23958396911621,199.41666666666666,106.35434964359132,194.4179839561956L106.59356829464112,183.99868271047106Q106.70833396911623,179,106.59356829464112,174.00131728952894L106.35434964359132,163.5820160438044Q106.23958396911621,158.58333333333334,105.94661521911621,154.02604166666669L105.94661521911621,154.02604166666669Q105.6536464691162,149.46875,105.2434902191162,145.56770833333331L105.2434902191162,145.56770833333331Q104.8333339691162,141.66666666666666,104.3108730316162,138.5859375L104.3108730316162,138.5859375Q103.7884120941162,135.50520833333331,103.17806053161621,133.19010416666666L103.1780605316162,133.19010416666666Q102.56770896911621,130.875,101.89876365661621,129.21614583333334L101.89876365661621,129.21614583333334Q101.22981834411621,127.55729166666667,100.53157615661621,126.4453125L100.53157615661621,126.4453125Q99.83333396911623,125.33333333333334,99.13509178161623,124.65885416666667L99.13509178161623,124.65885416666667Q98.43684959411623,123.984375,97.76790428161621,123.63802083333333L97.76790428161621,123.63802083333333Q97.09895896911621,123.29166666666666,94.71614646911621,123.14583333333333L92.33333396911621,123" stroke-linecap="round" stroke-linejoin="round" stroke-opacity="1" stroke-width="4" stroke-dasharray="none" opacity="1">
</path>
<path style="stroke-linecap: round; stroke-linejoin: round; opacity: 1; cursor: default;" fill="none" stroke="#ffff99" d="M92.33333396911621,235L94.71614646911621,234.85416666666666Q97.09895896911623,234.70833333333331,97.76790428161621,234.36197916666666L97.76790428161621,234.36197916666666Q98.43684959411621,234.015625,99.13509178161621,233.34114583333334L99.13509178161621,233.34114583333334Q99.83333396911623,232.66666666666669,100.53157615661623,231.5546875L100.53157615661623,231.5546875Q101.22981834411623,230.44270833333331,101.89876365661621,228.78385416666666L101.89876365661621,228.78385416666666Q102.56770896911621,227.125,103.17806053161621,224.80989583333331L103.17806053161621,224.80989583333331Q103.7884120941162,222.49479166666666,104.31087303161621,219.4140625L104.31087303161621,219.4140625Q104.83333396911621,216.33333333333331,105.24349021911621,212.43229166666666L105.24349021911621,212.43229166666666Q105.6536464691162,208.53125,105.94661521911621,203.97395833333331L105.94661521911621,203.97395833333331Q106.23958396911621,199.41666666666666,106.35434964359132,194.4179839561956L106.59356829464112,183.99868271047106Q106.70833396911623,179,106.59356829464112,174.00131728952894L106.35434964359132,163.5820160438044Q106.23958396911621,158.58333333333334,105.94661521911621,154.02604166666669L105.94661521911621,154.02604166666669Q105.6536464691162,149.46875,105.2434902191162,145.56770833333331L105.2434902191162,145.56770833333331Q104.8333339691162,141.66666666666666,104.3108730316162,138.5859375L104.3108730316162,138.5859375Q103.7884120941162,135.50520833333331,103.17806053161621,133.19010416666666L103.1780605316162,133.19010416666666Q102.56770896911621,130.875,101.89876365661621,129.21614583333334L101.89876365661621,129.21614583333334Q101.22981834411621,127.55729166666667,100.53157615661621,126.4453125L100.53157615661621,126.4453125Q99.83333396911623,125.33333333333334,99.13509178161623,124.65885416666667L99.13509178161623,124.65885416666667Q98.43684959411623,123.984375,97.76790428161621,123.63802083333333L97.76790428161621,123.63802083333333Q97.09895896911621,123.29166666666666,94.71614646911621,123.14583333333333L92.33333396911621,123" class="draw2d_Connection" stroke-linecap="round" stroke-linejoin="round" stroke-opacity="1" stroke-width="3" stroke-dasharray="none" opacity="1">
</path>
<ellipse cx="92.33333396911621" cy="123" rx="5" ry="5" fill="url('#1490-_4F6870-rgba_103_135_146_1_')" stroke="#1b1b1b" class="draw2d_HybridPort" style="cursor: move; opacity: 1; fill-opacity: 1; display: none;" opacity="1" fill-opacity="1" x="92.33333396911621" y="123" stroke-opacity="1" stroke-width="2" stroke-dasharray="none">
</ellipse>
<rect x="20" y="134" width="72.33333396911621" height="22" rx="0" ry="0" fill="#000000" stroke="none" class="ChannelShape" style="opacity: 1;" stroke-width="0" fill-opacity="0" stroke-dasharray="none" opacity="1" transform="matrix(1,0,0,1,0,0)">
</rect>
<text style="text-anchor: start; font-family: &quot;Arial&quot;; font-size: 12px; font-weight: normal; opacity: 1;" x="25" y="10" text-anchor="start" font-family="&quot;Arial&quot;" font-size="12px" stroke="#000000" fill="#4a4a4a" stroke-scale="true" class="ChannelShape" font-weight="normal" fill-opacity="1" stroke-opacity="0" stroke-width="0" opacity="1" transform="matrix(1,0,0,1,20,134)">
<tspan dy="4">ch3</tspan>
</text>
<path style="stroke-linecap: round; stroke-linejoin: round; opacity: 1; cursor: default;" fill="none" stroke="#303030" d="M92.33333396911621,257L94.71614646911621,256.85416666666663Q97.09895896911623,256.7083333333333,97.76790428161621,256.36197916666663L97.76790428161621,256.36197916666663Q98.43684959411621,256.015625,99.13509178161621,255.34114583333334L99.13509178161621,255.34114583333334Q99.83333396911623,254.66666666666669,100.53157615661623,253.5546875L100.53157615661623,253.5546875Q101.22981834411623,252.44270833333331,101.89876365661621,250.78385416666666L101.89876365661621,250.78385416666666Q102.56770896911621,249.125,103.17806053161621,246.80989583333331L103.17806053161621,246.80989583333331Q103.7884120941162,244.49479166666666,104.31087303161621,241.41406249999997L104.31087303161621,241.41406249999997Q104.83333396911621,238.3333333333333,105.24349021911621,234.43229166666663L105.24349021911621,234.43229166666663Q105.6536464691162,230.53124999999997,105.9466152191162,225.97395833333331L105.94661521911621,225.97395833333331Q106.23958396911621,221.41666666666666,106.35434964359132,216.4179839561956L106.59356829464112,205.9986827104711Q106.70833396911623,201.00000000000003,106.59356829464112,196.00131728952897L106.35434964359132,185.58201604380437Q106.23958396911621,180.58333333333331,105.94661521911621,176.02604166666666L105.9466152191162,176.02604166666666Q105.6536464691162,171.46875,105.2434902191162,167.56770833333331L105.2434902191162,167.56770833333331Q104.8333339691162,163.66666666666666,104.3108730316162,160.5859375L104.3108730316162,160.5859375Q103.7884120941162,157.50520833333331,103.17806053161621,155.19010416666663L103.17806053161621,155.19010416666663Q102.56770896911621,152.87499999999997,101.89876365661621,151.21614583333331L101.89876365661621,151.21614583333331Q101.22981834411621,149.55729166666666,100.53157615661623,148.4453125L100.53157615661621,148.4453125Q99.83333396911623,147.33333333333334,99.13509178161623,146.65885416666666L99.13509178161623,146.65885416666666Q98.43684959411623,145.98437499999997,97.76790428161621,145.63802083333331L97.76790428161621,145.63802083333331Q97.09895896911621,145.29166666666666,94.71614646911621,145.14583333333331L92.33333396911621,145" stroke-linecap="round" stroke-linejoin="round" stroke-opacity="1" stroke-width="4" stroke-dasharray="none" opacity="1">
</path>
<path style="stroke-linecap: round; stroke-linejoin: round; opacity: 1; cursor: default;" fill="none" stroke="#00a8f0" d="M92.33333396911621,257L94.71614646911621,256.85416666666663Q97.09895896911623,256.7083333333333,97.76790428161621,256.36197916666663L97.76790428161621,256.36197916666663Q98.43684959411621,256.015625,99.13509178161621,255.34114583333334L99.13509178161621,255.34114583333334Q99.83333396911623,254.66666666666669,100.53157615661623,253.5546875L100.53157615661623,253.5546875Q101.22981834411623,252.44270833333331,101.89876365661621,250.78385416666666L101.89876365661621,250.78385416666666Q102.56770896911621,249.125,103.17806053161621,246.80989583333331L103.17806053161621,246.80989583333331Q103.7884120941162,244.49479166666666,104.31087303161621,241.41406249999997L104.31087303161621,241.41406249999997Q104.83333396911621,238.3333333333333,105.24349021911621,234.43229166666663L105.24349021911621,234.43229166666663Q105.6536464691162,230.53124999999997,105.9466152191162,225.97395833333331L105.94661521911621,225.97395833333331Q106.23958396911621,221.41666666666666,106.35434964359132,216.4179839561956L106.59356829464112,205.9986827104711Q106.70833396911623,201.00000000000003,106.59356829464112,196.00131728952897L106.35434964359132,185.58201604380437Q106.23958396911621,180.58333333333331,105.94661521911621,176.02604166666666L105.9466152191162,176.02604166666666Q105.6536464691162,171.46875,105.2434902191162,167.56770833333331L105.2434902191162,167.56770833333331Q104.8333339691162,163.66666666666666,104.3108730316162,160.5859375L104.3108730316162,160.5859375Q103.7884120941162,157.50520833333331,103.17806053161621,155.19010416666663L103.17806053161621,155.19010416666663Q102.56770896911621,152.87499999999997,101.89876365661621,151.21614583333331L101.89876365661621,151.21614583333331Q101.22981834411621,149.55729166666666,100.53157615661623,148.4453125L100.53157615661621,148.4453125Q99.83333396911623,147.33333333333334,99.13509178161623,146.65885416666666L99.13509178161623,146.65885416666666Q98.43684959411623,145.98437499999997,97.76790428161621,145.63802083333331L97.76790428161621,145.63802083333331Q97.09895896911621,145.29166666666666,94.71614646911621,145.14583333333331L92.33333396911621,145" class="draw2d_Connection" stroke-linecap="round" stroke-linejoin="round" stroke-opacity="1" stroke-width="3" stroke-dasharray="none" opacity="1">
</path>
<ellipse cx="92.33333396911621" cy="145" rx="5" ry="5" fill="url('#1790-_4F6870-rgba_103_135_146_1_')" stroke="#1b1b1b" class="draw2d_HybridPort" style="cursor: move; opacity: 1; fill-opacity: 1; display: none;" opacity="1" fill-opacity="1" x="92.33333396911621" y="145" stroke-opacity="1" stroke-width="2" stroke-dasharray="none">
</ellipse>
<rect x="20" y="156" width="73" height="112" rx="3" ry="3" fill="#dbddde" stroke="none" class="FPGAShapeVertical" style="opacity: 1;" stroke-width="0" fill-opacity="1" stroke-dasharray="none" opacity="1" transform="matrix(1,0,0,1,0,0)">
</rect>
<rect x="20" y="156" width="73" height="24" rx="0" ry="0" fill="#f7f7f7" stroke="none" class="draw2d_shape_basic_Label" style="opacity: 1;" stroke-width="0" fill-opacity="1" stroke-dasharray="none" opacity="1" transform="matrix(1,0,0,1,0,0)">
</rect>
<text style="text-anchor: start; font-family: &quot;Arial&quot;; font-size: 12px; font-weight: normal; opacity: 1;" x="25" y="12" text-anchor="start" font-family="&quot;Arial&quot;" font-size="12px" stroke="#000000" fill="#4a4a4a" stroke-scale="true" class="draw2d_shape_basic_Label" font-weight="normal" fill-opacity="1" stroke-opacity="0" stroke-width="0" opacity="1" transform="matrix(1,0,0,1,20,156)">
<tspan dy="4">acl1</tspan>
</text>
<rect x="20" y="180" width="72.33333396911621" height="22" rx="0" ry="0" fill="#000000" stroke="none" class="ChannelShape" style="opacity: 1;" stroke-width="0" fill-opacity="0" stroke-dasharray="none" opacity="1" transform="matrix(1,0,0,1,0,0)">
</rect>
<text style="text-anchor: start; font-family: &quot;Arial&quot;; font-size: 12px; font-weight: normal; opacity: 1;" x="25" y="10" text-anchor="start" font-family="&quot;Arial&quot;" font-size="12px" stroke="#000000" fill="#4a4a4a" stroke-scale="true" class="ChannelShape" font-weight="normal" fill-opacity="1" stroke-opacity="0" stroke-width="0" opacity="1" transform="matrix(1,0,0,1,20,180)">
<tspan dy="4">ch0</tspan>
</text>
<ellipse cx="92.33333396911621" cy="191" rx="5" ry="5" fill="url('#2390-_4F6870-rgba_103_135_146_1_')" stroke="#1b1b1b" class="draw2d_HybridPort" style="cursor: move; opacity: 1; fill-opacity: 1; display: none;" opacity="1" fill-opacity="1" x="92.33333396911621" y="191" stroke-opacity="1" stroke-width="1" stroke-dasharray="none">
</ellipse>
<rect x="20" y="202" width="72.33333396911621" height="22" rx="0" ry="0" fill="#000000" stroke="none" class="ChannelShape" style="opacity: 1;" stroke-width="0" fill-opacity="0" stroke-dasharray="none" opacity="1" transform="matrix(1,0,0,1,0,0)">
</rect>
<text style="text-anchor: start; font-family: &quot;Arial&quot;; font-size: 12px; font-weight: normal; opacity: 1;" x="25" y="10" text-anchor="start" font-family="&quot;Arial&quot;" font-size="12px" stroke="#000000" fill="#4a4a4a" stroke-scale="true" class="ChannelShape" font-weight="normal" fill-opacity="1" stroke-opacity="0" stroke-width="0" opacity="1" transform="matrix(1,0,0,1,20,202)">
<tspan dy="4">ch1</tspan>
</text>
<ellipse cx="92.33333396911621" cy="213" rx="5" ry="5" fill="url('#2690-_4F6870-rgba_103_135_146_1_')" stroke="#1b1b1b" class="draw2d_HybridPort" style="cursor: move; opacity: 1; fill-opacity: 1; display: none;" opacity="1" fill-opacity="1" x="92.33333396911621" y="213" stroke-opacity="1" stroke-width="1" stroke-dasharray="none">
</ellipse>
<rect x="20" y="224" width="72.33333396911621" height="22" rx="0" ry="0" fill="#000000" stroke="none" class="ChannelShape" style="opacity: 1;" stroke-width="0" fill-opacity="0" stroke-dasharray="none" opacity="1" transform="matrix(1,0,0,1,0,0)">
</rect>
<text style="text-anchor: start; font-family: &quot;Arial&quot;; font-size: 12px; font-weight: normal; opacity: 1;" x="25" y="10" text-anchor="start" font-family="&quot;Arial&quot;" font-size="12px" stroke="#000000" fill="#4a4a4a" stroke-scale="true" class="ChannelShape" font-weight="normal" fill-opacity="1" stroke-opacity="0" stroke-width="0" opacity="1" transform="matrix(1,0,0,1,20,224)">
<tspan dy="4">ch2</tspan>
</text>
<ellipse cx="92.33333396911621" cy="235" rx="5" ry="5" fill="url('#2990-_4F6870-rgba_103_135_146_1_')" stroke="#1b1b1b" class="draw2d_HybridPort" style="cursor: move; opacity: 1; fill-opacity: 1; display: none;" opacity="1" fill-opacity="1" x="92.33333396911621" y="235" stroke-opacity="1" stroke-width="1" stroke-dasharray="none">
</ellipse>
<rect x="20" y="246" width="72.33333396911621" height="22" rx="0" ry="0" fill="#000000" stroke="none" class="ChannelShape" style="opacity: 1;" stroke-width="0" fill-opacity="0" stroke-dasharray="none" opacity="1" transform="matrix(1,0,0,1,0,0)">
</rect>
<text style="text-anchor: start; font-family: &quot;Arial&quot;; font-size: 12px; font-weight: normal; opacity: 1;" x="25" y="10" text-anchor="start" font-family="&quot;Arial&quot;" font-size="12px" stroke="#000000" fill="#4a4a4a" stroke-scale="true" class="ChannelShape" font-weight="normal" fill-opacity="1" stroke-opacity="0" stroke-width="0" opacity="1" transform="matrix(1,0,0,1,20,246)">
<tspan dy="4">ch3</tspan>
</text>
<ellipse cx="92.33333396911621" cy="257" rx="5" ry="5" fill="url('#3290-_4F6870-rgba_103_135_146_1_')" stroke="#1b1b1b" class="draw2d_HybridPort" style="cursor: move; opacity: 1; fill-opacity: 1; display: none;" opacity="1" fill-opacity="1" x="92.33333396911621" y="257" stroke-opacity="1" stroke-width="1" stroke-dasharray="none">
</ellipse>
</svg>
