<svg height="268" version="1.1" width="390" xmlns="http://www.w3.org/2000/svg" xmlns:xlink="http://www.w3.org/1999/xlink" style="overflow: hidden; position: absolute;">
<desc>Create with draw2d JS graph library and RaphaelJS</desc>
<defs>
<linearGradient id="18490-_4F6870-rgba_103_135_146_1_" x1="0" y1="1" x2="6.123233995736766e-17" y2="0" gradientTransform="matrix(1,0,0,1,0,0)">
<stop offset="0%" stop-color="#4f6870" stop-opacity="1">
</stop>
<stop offset="100%" stop-color="#678792" stop-opacity="1">
</stop>
</linearGradient>
<linearGradient id="18790-_4F6870-rgba_103_135_146_1_" x1="0" y1="1" x2="6.123233995736766e-17" y2="0" gradientTransform="matrix(1,0,0,1,0,0)">
<stop offset="0%" stop-color="#4f6870" stop-opacity="1">
</stop>
<stop offset="100%" stop-color="#678792" stop-opacity="1">
</stop>
</linearGradient>
<linearGradient id="19090-_4F6870-rgba_103_135_146_1_" x1="0" y1="1" x2="6.123233995736766e-17" y2="0" gradientTransform="matrix(1,0,0,1,0,0)">
<stop offset="0%" stop-color="#4f6870" stop-opacity="1">
</stop>
<stop offset="100%" stop-color="#678792" stop-opacity="1">
</stop>
</linearGradient>
<linearGradient id="19390-_4F6870-rgba_103_135_146_1_" x1="0" y1="1" x2="6.123233995736766e-17" y2="0" gradientTransform="matrix(1,0,0,1,0,0)">
<stop offset="0%" stop-color="#4f6870" stop-opacity="1">
</stop>
<stop offset="100%" stop-color="#678792" stop-opacity="1">
</stop>
</linearGradient>
<linearGradient id="19990-_4F6870-rgba_103_135_146_1_" x1="0" y1="1" x2="6.123233995736766e-17" y2="0" gradientTransform="matrix(1,0,0,1,0,0)">
<stop offset="0%" stop-color="#4f6870" stop-opacity="1">
</stop>
<stop offset="100%" stop-color="#678792" stop-opacity="1">
</stop>
</linearGradient>
<linearGradient id="20290-_4F6870-rgba_103_135_146_1_" x1="0" y1="1" x2="6.123233995736766e-17" y2="0" gradientTransform="matrix(1,0,0,1,0,0)">
<stop offset="0%" stop-color="#4f6870" stop-opacity="1">
</stop>
<stop offset="100%" stop-color="#678792" stop-opacity="1">
</stop>
</linearGradient>
<linearGradient id="20590-_4F6870-rgba_103_135_146_1_" x1="0" y1="1" x2="6.123233995736766e-17" y2="0" gradientTransform="matrix(1,0,0,1,0,0)">
<stop offset="0%" stop-color="#4f6870" stop-opacity="1">
</stop>
<stop offset="100%" stop-color="#678792" stop-opacity="1">
</stop>
</linearGradient>
<linearGradient id="20890-_4F6870-rgba_103_135_146_1_" x1="0" y1="1" x2="6.123233995736766e-17" y2="0" gradientTransform="matrix(1,0,0,1,0,0)">
<stop offset="0%" stop-color="#4f6870" stop-opacity="1">
</stop>
<stop offset="100%" stop-color="#678792" stop-opacity="1">
</stop>
</linearGradient>
<linearGradient id="21890-_4F6870-rgba_103_135_146_1_" x1="0" y1="1" x2="6.123233995736766e-17" y2="0" gradientTransform="matrix(1,0,0,1,0,0)">
<stop offset="0%" stop-color="#4f6870" stop-opacity="1">
</stop>
<stop offset="100%" stop-color="#678792" stop-opacity="1">
</stop>
</linearGradient>
<linearGradient id="22190-_4F6870-rgba_103_135_146_1_" x1="0" y1="1" x2="6.123233995736766e-17" y2="0" gradientTransform="matrix(1,0,0,1,0,0)">
<stop offset="0%" stop-color="#4f6870" stop-opacity="1">
</stop>
<stop offset="100%" stop-color="#678792" stop-opacity="1">
</stop>
</linearGradient>
<linearGradient id="22490-_4F6870-rgba_103_135_146_1_" x1="0" y1="1" x2="6.123233995736766e-17" y2="0" gradientTransform="matrix(1,0,0,1,0,0)">
<stop offset="0%" stop-color="#4f6870" stop-opacity="1">
</stop>
<stop offset="100%" stop-color="#678792" stop-opacity="1">
</stop>
</linearGradient>
<linearGradient id="22790-_4F6870-rgba_103_135_146_1_" x1="0" y1="1" x2="6.123233995736766e-17" y2="0" gradientTransform="matrix(1,0,0,1,0,0)">
<stop offset="0%" stop-color="#4f6870" stop-opacity="1">
</stop>
<stop offset="100%" stop-color="#678792" stop-opacity="1">
</stop>
</linearGradient>
<linearGradient id="23390-_4F6870-rgba_103_135_146_1_" x1="0" y1="1" x2="6.123233995736766e-17" y2="0" gradientTransform="matrix(1,0,0,1,0,0)">
<stop offset="0%" stop-color="#4f6870" stop-opacity="1">
</stop>
<stop offset="100%" stop-color="#678792" stop-opacity="1">
</stop>
</linearGradient>
<linearGradient id="23690-_4F6870-rgba_103_135_146_1_" x1="0" y1="1" x2="6.123233995736766e-17" y2="0" gradientTransform="matrix(1,0,0,1,0,0)">
<stop offset="0%" stop-color="#4f6870" stop-opacity="1">
</stop>
<stop offset="100%" stop-color="#678792" stop-opacity="1">
</stop>
</linearGradient>
<linearGradient id="23990-_4F6870-rgba_103_135_146_1_" x1="0" y1="1" x2="6.123233995736766e-17" y2="0" gradientTransform="matrix(1,0,0,1,0,0)">
<stop offset="0%" stop-color="#4f6870" stop-opacity="1">
</stop>
<stop offset="100%" stop-color="#678792" stop-opacity="1">
</stop>
</linearGradient>
<linearGradient id="24290-_4F6870-rgba_103_135_146_1_" x1="0" y1="1" x2="6.123233995736766e-17" y2="0" gradientTransform="matrix(1,0,0,1,0,0)">
<stop offset="0%" stop-color="#4f6870" stop-opacity="1">
</stop>
<stop offset="100%" stop-color="#678792" stop-opacity="1">
</stop>
</linearGradient>
<linearGradient id="25290-_4F6870-rgba_103_135_146_1_" x1="0" y1="1" x2="6.123233995736766e-17" y2="0" gradientTransform="matrix(1,0,0,1,0,0)">
<stop offset="0%" stop-color="#4f6870" stop-opacity="1">
</stop>
<stop offset="100%" stop-color="#678792" stop-opacity="1">
</stop>
</linearGradient>
<linearGradient id="25590-_4F6870-rgba_103_135_146_1_" x1="0" y1="1" x2="6.123233995736766e-17" y2="0" gradientTransform="matrix(1,0,0,1,0,0)">
<stop offset="0%" stop-color="#4f6870" stop-opacity="1">
</stop>
<stop offset="100%" stop-color="#678792" stop-opacity="1">
</stop>
</linearGradient>
<linearGradient id="25890-_4F6870-rgba_103_135_146_1_" x1="0" y1="1" x2="6.123233995736766e-17" y2="0" gradientTransform="matrix(1,0,0,1,0,0)">
<stop offset="0%" stop-color="#4f6870" stop-opacity="1">
</stop>
<stop offset="100%" stop-color="#678792" stop-opacity="1">
</stop>
</linearGradient>
<linearGradient id="26190-_4F6870-rgba_103_135_146_1_" x1="0" y1="1" x2="6.123233995736766e-17" y2="0" gradientTransform="matrix(1,0,0,1,0,0)">
<stop offset="0%" stop-color="#4f6870" stop-opacity="1">
</stop>
<stop offset="100%" stop-color="#678792" stop-opacity="1">
</stop>
</linearGradient>
<linearGradient id="26790-_4F6870-rgba_103_135_146_1_" x1="0" y1="1" x2="6.123233995736766e-17" y2="0" gradientTransform="matrix(1,0,0,1,0,0)">
<stop offset="0%" stop-color="#4f6870" stop-opacity="1">
</stop>
<stop offset="100%" stop-color="#678792" stop-opacity="1">
</stop>
</linearGradient>
<linearGradient id="27090-_4F6870-rgba_103_135_146_1_" x1="0" y1="1" x2="6.123233995736766e-17" y2="0" gradientTransform="matrix(1,0,0,1,0,0)">
<stop offset="0%" stop-color="#4f6870" stop-opacity="1">
</stop>
<stop offset="100%" stop-color="#678792" stop-opacity="1">
</stop>
</linearGradient>
<linearGradient id="27390-_4F6870-rgba_103_135_146_1_" x1="0" y1="1" x2="6.123233995736766e-17" y2="0" gradientTransform="matrix(1,0,0,1,0,0)">
<stop offset="0%" stop-color="#4f6870" stop-opacity="1">
</stop>
<stop offset="100%" stop-color="#678792" stop-opacity="1">
</stop>
</linearGradient>
<linearGradient id="27690-_4F6870-rgba_103_135_146_1_" x1="0" y1="1" x2="6.123233995736766e-17" y2="0" gradientTransform="matrix(1,0,0,1,0,0)">
<stop offset="0%" stop-color="#4f6870" stop-opacity="1">
</stop>
<stop offset="100%" stop-color="#678792" stop-opacity="1">
</stop>
</linearGradient>
</defs>
<rect x="20" y="20" width="73" height="248" rx="3" ry="3" fill="#dbddde" stroke="none" class="NodeShapeVertical" style="opacity: 1; cursor: default;" stroke-width="0" fill-opacity="1" stroke-dasharray="none" opacity="1" transform="matrix(1,0,0,1,0,0)">
</rect>
<rect x="20" y="20" width="73" height="24" rx="3" ry="3" fill="#1e90ff" stroke="#1b1b1b" class="draw2d_shape_basic_Label" style="opacity: 1;" stroke-opacity="1" stroke-width="1" fill-opacity="1" stroke-dasharray="none" opacity="1" transform="matrix(1,0,0,1,0,0)">
</rect>
<text style="text-anchor: start; font-family: &quot;Arial&quot;; font-size: 12px; font-weight: normal; opacity: 1;" x="26" y="12" text-anchor="start" font-family="&quot;Arial&quot;" font-size="12px" stroke="#000000" fill="#000000" stroke-scale="true" class="draw2d_shape_basic_Label" font-weight="normal" fill-opacity="1" stroke-opacity="0" stroke-width="0" opacity="1" transform="matrix(1,0,0,1,20,20)">
<tspan dy="4">n00</tspan>
</text>
<rect x="20" y="44" width="73" height="112" rx="3" ry="3" fill="#dbddde" stroke="none" class="FPGAShapeVertical" style="opacity: 1;" stroke-width="0" fill-opacity="1" stroke-dasharray="none" opacity="1" transform="matrix(1,0,0,1,0,0)">
</rect>
<rect x="20" y="44" width="73" height="24" rx="0" ry="0" fill="#f7f7f7" stroke="none" class="draw2d_shape_basic_Label" style="opacity: 1;" stroke-width="0" fill-opacity="1" stroke-dasharray="none" opacity="1" transform="matrix(1,0,0,1,0,0)">
</rect>
<text style="text-anchor: start; font-family: &quot;Arial&quot;; font-size: 12px; font-weight: normal; opacity: 1;" x="25" y="12" text-anchor="start" font-family="&quot;Arial&quot;" font-size="12px" stroke="#000000" fill="#4a4a4a" stroke-scale="true" class="draw2d_shape_basic_Label" font-weight="normal" fill-opacity="1" stroke-opacity="0" stroke-width="0" opacity="1" transform="matrix(1,0,0,1,20,44)">
<tspan dy="4">acl0</tspan>
</text>
<rect x="20" y="68" width="72.33333396911621" height="22" rx="0" ry="0" fill="#000000" stroke="none" class="ChannelShape" style="opacity: 1;" stroke-width="0" fill-opacity="0" stroke-dasharray="none" opacity="1" transform="matrix(1,0,0,1,0,0)">
</rect>
<text style="text-anchor: start; font-family: &quot;Arial&quot;; font-size: 12px; font-weight: normal; opacity: 1;" x="25" y="10" text-anchor="start" font-family="&quot;Arial&quot;" font-size="12px" stroke="#000000" fill="#4a4a4a" stroke-scale="true" class="ChannelShape" font-weight="normal" fill-opacity="1" stroke-opacity="0" stroke-width="0" opacity="1" transform="matrix(1,0,0,1,20,68)">
<tspan dy="4">ch0</tspan>
</text>
<path style="stroke-linecap: round; stroke-linejoin: round; opacity: 1;" fill="none" stroke="#303030" d="M92.33333396911621,191L94.71614646911621,190.85416666666666Q97.09895896911623,190.70833333333331,97.76790428161621,190.36197916666666L97.76790428161621,190.36197916666666Q98.43684959411621,190.015625,99.13509178161621,189.34114583333337L99.13509178161621,189.34114583333337Q99.83333396911623,188.6666666666667,100.53157615661623,187.55468750000003L100.53157615661623,187.55468750000003Q101.22981834411623,186.44270833333334,101.89876365661621,184.78385416666669L101.89876365661621,184.78385416666669Q102.56770896911621,183.125,103.17806053161621,180.80989583333331L103.17806053161621,180.80989583333331Q103.7884120941162,178.49479166666666,104.31087303161621,175.4140625L104.31087303161621,175.4140625Q104.83333396911621,172.33333333333331,105.24349021911621,168.43229166666666L105.24349021911621,168.43229166666666Q105.6536464691162,164.53125,105.94661521911621,159.97395833333331L105.94661521911621,159.97395833333331Q106.23958396911621,155.41666666666663,106.35434964359132,150.41798395619557L106.59356829464112,139.9986827104711Q106.70833396911623,135.00000000000003,106.59356829464112,130.00131728952897L106.35434964359132,119.5820160438044Q106.23958396911621,114.58333333333334,105.94661521911621,110.02604166666666L105.94661521911621,110.02604166666666Q105.6536464691162,105.46874999999999,105.2434902191162,101.56770833333333L105.2434902191162,101.56770833333333Q104.8333339691162,97.66666666666667,104.3108730316162,94.5859375L104.3108730316162,94.5859375Q103.7884120941162,91.50520833333333,103.17806053161621,89.19010416666666L103.17806053161621,89.19010416666666Q102.56770896911621,86.875,101.89876365661621,85.21614583333334L101.89876365661621,85.21614583333334Q101.22981834411621,83.55729166666667,100.53157615661621,82.4453125L100.53157615661621,82.4453125Q99.83333396911623,81.33333333333333,99.13509178161623,80.65885416666667L99.13509178161623,80.65885416666667Q98.43684959411623,79.98437500000001,97.76790428161621,79.63802083333334L97.76790428161621,79.63802083333334Q97.09895896911621,79.29166666666666,94.71614646911621,79.14583333333333L92.33333396911621,79" stroke-linecap="round" stroke-linejoin="round" stroke-opacity="1" stroke-width="4" stroke-dasharray="none" opacity="1">
</path>
<path style="stroke-linecap: round; stroke-linejoin: round; opacity: 1;" fill="none" stroke="#b9dd69" d="M92.33333396911621,191L94.71614646911621,190.85416666666666Q97.09895896911623,190.70833333333331,97.76790428161621,190.36197916666666L97.76790428161621,190.36197916666666Q98.43684959411621,190.015625,99.13509178161621,189.34114583333337L99.13509178161621,189.34114583333337Q99.83333396911623,188.6666666666667,100.53157615661623,187.55468750000003L100.53157615661623,187.55468750000003Q101.22981834411623,186.44270833333334,101.89876365661621,184.78385416666669L101.89876365661621,184.78385416666669Q102.56770896911621,183.125,103.17806053161621,180.80989583333331L103.17806053161621,180.80989583333331Q103.7884120941162,178.49479166666666,104.31087303161621,175.4140625L104.31087303161621,175.4140625Q104.83333396911621,172.33333333333331,105.24349021911621,168.43229166666666L105.24349021911621,168.43229166666666Q105.6536464691162,164.53125,105.94661521911621,159.97395833333331L105.94661521911621,159.97395833333331Q106.23958396911621,155.41666666666663,106.35434964359132,150.41798395619557L106.59356829464112,139.9986827104711Q106.70833396911623,135.00000000000003,106.59356829464112,130.00131728952897L106.35434964359132,119.5820160438044Q106.23958396911621,114.58333333333334,105.94661521911621,110.02604166666666L105.94661521911621,110.02604166666666Q105.6536464691162,105.46874999999999,105.2434902191162,101.56770833333333L105.2434902191162,101.56770833333333Q104.8333339691162,97.66666666666667,104.3108730316162,94.5859375L104.3108730316162,94.5859375Q103.7884120941162,91.50520833333333,103.17806053161621,89.19010416666666L103.17806053161621,89.19010416666666Q102.56770896911621,86.875,101.89876365661621,85.21614583333334L101.89876365661621,85.21614583333334Q101.22981834411621,83.55729166666667,100.53157615661621,82.4453125L100.53157615661621,82.4453125Q99.83333396911623,81.33333333333333,99.13509178161623,80.65885416666667L99.13509178161623,80.65885416666667Q98.43684959411623,79.98437500000001,97.76790428161621,79.63802083333334L97.76790428161621,79.63802083333334Q97.09895896911621,79.29166666666666,94.71614646911621,79.14583333333333L92.33333396911621,79" class="draw2d_Connection" stroke-linecap="round" stroke-linejoin="round" stroke-opacity="1" stroke-width="3" stroke-dasharray="none" opacity="1">
</path>
<ellipse cx="92.33333396911621" cy="79" rx="5" ry="5" fill="url('#18490-_4F6870-rgba_103_135_146_1_')" stroke="#1b1b1b" class="draw2d_HybridPort" style="cursor: move; opacity: 1; fill-opacity: 1; display: none;" opacity="1" fill-opacity="1" x="92.33333396911621" y="79" stroke-opacity="1" stroke-width="2" stroke-dasharray="none">
</ellipse>
<rect x="20" y="90" width="72.33333396911621" height="22" rx="0" ry="0" fill="#000000" stroke="none" class="ChannelShape" style="opacity: 1;" stroke-width="0" fill-opacity="0" stroke-dasharray="none" opacity="1" transform="matrix(1,0,0,1,0,0)">
</rect>
<text style="text-anchor: start; font-family: &quot;Arial&quot;; font-size: 12px; font-weight: normal; opacity: 1;" x="25" y="10" text-anchor="start" font-family="&quot;Arial&quot;" font-size="12px" stroke="#000000" fill="#4a4a4a" stroke-scale="true" class="ChannelShape" font-weight="normal" fill-opacity="1" stroke-opacity="0" stroke-width="0" opacity="1" transform="matrix(1,0,0,1,20,90)">
<tspan dy="4">ch1</tspan>
</text>
<path style="stroke-linecap: round; stroke-linejoin: round; opacity: 1; cursor: default;" fill="none" stroke="#303030" d="M92.33333396911621,213L94.71614646911621,212.85416666666669Q97.09895896911623,212.70833333333334,97.76790428161621,212.36197916666669L97.76790428161621,212.36197916666669Q98.43684959411621,212.015625,99.13509178161621,211.34114583333331L99.13509178161621,211.34114583333331Q99.83333396911623,210.66666666666666,100.53157615661623,209.5546875L100.53157615661623,209.5546875Q101.22981834411623,208.44270833333334,101.89876365661621,206.78385416666669L101.89876365661621,206.78385416666669Q102.56770896911621,205.125,103.17806053161621,202.80989583333331L103.17806053161621,202.80989583333331Q103.7884120941162,200.49479166666666,104.31087303161621,197.4140625L104.31087303161621,197.4140625Q104.83333396911621,194.33333333333334,105.24349021911621,190.43229166666669L105.24349021911621,190.43229166666669Q105.6536464691162,186.53125,105.9466152191162,181.97395833333334L105.94661521911621,181.97395833333334Q106.23958396911621,177.41666666666669,106.35434964359132,172.41798395619563L106.59356829464112,161.99868271047106Q106.70833396911623,157,106.59356829464112,152.00131728952894L106.35434964359132,141.58201604380437Q106.23958396911621,136.58333333333331,105.94661521911621,132.02604166666666L105.9466152191162,132.02604166666666Q105.6536464691162,127.46875,105.2434902191162,123.56770833333333L105.2434902191162,123.56770833333333Q104.8333339691162,119.66666666666666,104.3108730316162,116.5859375L104.3108730316162,116.5859375Q103.7884120941162,113.50520833333333,103.17806053161621,111.19010416666666L103.17806053161621,111.19010416666666Q102.56770896911621,108.87499999999999,101.89876365661621,107.21614583333331L101.89876365661621,107.21614583333331Q101.22981834411621,105.55729166666666,100.53157615661623,104.4453125L100.53157615661621,104.4453125Q99.83333396911623,103.33333333333334,99.13509178161623,102.65885416666666L99.13509178161623,102.65885416666666Q98.43684959411623,101.98437499999999,97.76790428161621,101.63802083333331L97.76790428161621,101.63802083333331Q97.09895896911621,101.29166666666666,94.71614646911621,101.14583333333333L92.33333396911621,101" stroke-linecap="round" stroke-linejoin="round" stroke-opacity="1" stroke-width="4" stroke-dasharray="none" opacity="1">
</path>
<path style="stroke-linecap: round; stroke-linejoin: round; opacity: 1; cursor: default;" fill="none" stroke="#f3546a" d="M92.33333396911621,213L94.71614646911621,212.85416666666669Q97.09895896911623,212.70833333333334,97.76790428161621,212.36197916666669L97.76790428161621,212.36197916666669Q98.43684959411621,212.015625,99.13509178161621,211.34114583333331L99.13509178161621,211.34114583333331Q99.83333396911623,210.66666666666666,100.53157615661623,209.5546875L100.53157615661623,209.5546875Q101.22981834411623,208.44270833333334,101.89876365661621,206.78385416666669L101.89876365661621,206.78385416666669Q102.56770896911621,205.125,103.17806053161621,202.80989583333331L103.17806053161621,202.80989583333331Q103.7884120941162,200.49479166666666,104.31087303161621,197.4140625L104.31087303161621,197.4140625Q104.83333396911621,194.33333333333334,105.24349021911621,190.43229166666669L105.24349021911621,190.43229166666669Q105.6536464691162,186.53125,105.9466152191162,181.97395833333334L105.94661521911621,181.97395833333334Q106.23958396911621,177.41666666666669,106.35434964359132,172.41798395619563L106.59356829464112,161.99868271047106Q106.70833396911623,157,106.59356829464112,152.00131728952894L106.35434964359132,141.58201604380437Q106.23958396911621,136.58333333333331,105.94661521911621,132.02604166666666L105.9466152191162,132.02604166666666Q105.6536464691162,127.46875,105.2434902191162,123.56770833333333L105.2434902191162,123.56770833333333Q104.8333339691162,119.66666666666666,104.3108730316162,116.5859375L104.3108730316162,116.5859375Q103.7884120941162,113.50520833333333,103.17806053161621,111.19010416666666L103.17806053161621,111.19010416666666Q102.56770896911621,108.87499999999999,101.89876365661621,107.21614583333331L101.89876365661621,107.21614583333331Q101.22981834411621,105.55729166666666,100.53157615661623,104.4453125L100.53157615661621,104.4453125Q99.83333396911623,103.33333333333334,99.13509178161623,102.65885416666666L99.13509178161623,102.65885416666666Q98.43684959411623,101.98437499999999,97.76790428161621,101.63802083333331L97.76790428161621,101.63802083333331Q97.09895896911621,101.29166666666666,94.71614646911621,101.14583333333333L92.33333396911621,101" class="draw2d_Connection" stroke-linecap="round" stroke-linejoin="round" stroke-opacity="1" stroke-width="3" stroke-dasharray="none" opacity="1">
</path>
<ellipse cx="92.33333396911621" cy="101" rx="5" ry="5" fill="url('#18790-_4F6870-rgba_103_135_146_1_')" stroke="#1b1b1b" class="draw2d_HybridPort" style="cursor: move; opacity: 1; fill-opacity: 1; display: none;" opacity="1" fill-opacity="1" x="92.33333396911621" y="101" stroke-opacity="1" stroke-width="2" stroke-dasharray="none">
</ellipse>
<rect x="20" y="112" width="72.33333396911621" height="22" rx="0" ry="0" fill="#000000" stroke="none" class="ChannelShape" style="opacity: 1;" stroke-width="0" fill-opacity="0" stroke-dasharray="none" opacity="1" transform="matrix(1,0,0,1,0,0)">
</rect>
<text style="text-anchor: start; font-family: &quot;Arial&quot;; font-size: 12px; font-weight: normal; opacity: 1;" x="25" y="10" text-anchor="start" font-family="&quot;Arial&quot;" font-size="12px" stroke="#000000" fill="#4a4a4a" stroke-scale="true" class="ChannelShape" font-weight="normal" fill-opacity="1" stroke-opacity="0" stroke-width="0" opacity="1" transform="matrix(1,0,0,1,20,112)">
<tspan dy="4">ch2</tspan>
</text>
<path style="stroke-linecap: round; stroke-linejoin: round; opacity: 1; cursor: default;" fill="none" stroke="#303030" d="M92.33333396911621,235L94.71614646911621,234.85416666666666Q97.09895896911623,234.70833333333331,97.76790428161621,234.36197916666666L97.76790428161621,234.36197916666666Q98.43684959411621,234.015625,99.13509178161621,233.34114583333334L99.13509178161621,233.34114583333334Q99.83333396911623,232.66666666666669,100.53157615661623,231.5546875L100.53157615661623,231.5546875Q101.22981834411623,230.44270833333331,101.89876365661621,228.78385416666666L101.89876365661621,228.78385416666666Q102.56770896911621,227.125,103.17806053161621,224.80989583333331L103.17806053161621,224.80989583333331Q103.7884120941162,222.49479166666666,104.31087303161621,219.4140625L104.31087303161621,219.4140625Q104.83333396911621,216.33333333333331,105.24349021911621,212.43229166666666L105.24349021911621,212.43229166666666Q105.6536464691162,208.53125,105.94661521911621,203.97395833333331L105.94661521911621,203.97395833333331Q106.23958396911621,199.41666666666666,106.35434964359132,194.4179839561956L106.59356829464112,183.99868271047106Q106.70833396911623,179,106.59356829464112,174.00131728952894L106.35434964359132,163.5820160438044Q106.23958396911621,158.58333333333334,105.94661521911621,154.02604166666669L105.94661521911621,154.02604166666669Q105.6536464691162,149.46875,105.2434902191162,145.56770833333331L105.2434902191162,145.56770833333331Q104.8333339691162,141.66666666666666,104.3108730316162,138.5859375L104.3108730316162,138.5859375Q103.7884120941162,135.50520833333331,103.17806053161621,133.19010416666666L103.1780605316162,133.19010416666666Q102.56770896911621,130.875,101.89876365661621,129.21614583333334L101.89876365661621,129.21614583333334Q101.22981834411621,127.55729166666667,100.53157615661621,126.4453125L100.53157615661621,126.4453125Q99.83333396911623,125.33333333333334,99.13509178161623,124.65885416666667L99.13509178161623,124.65885416666667Q98.43684959411623,123.984375,97.76790428161621,123.63802083333333L97.76790428161621,123.63802083333333Q97.09895896911621,123.29166666666666,94.71614646911621,123.14583333333333L92.33333396911621,123" stroke-linecap="round" stroke-linejoin="round" stroke-opacity="1" stroke-width="4" stroke-dasharray="none" opacity="1">
</path>
<path style="stroke-linecap: round; stroke-linejoin: round; opacity: 1; cursor: default;" fill="none" stroke="#ffff99" d="M92.33333396911621,235L94.71614646911621,234.85416666666666Q97.09895896911623,234.70833333333331,97.76790428161621,234.36197916666666L97.76790428161621,234.36197916666666Q98.43684959411621,234.015625,99.13509178161621,233.34114583333334L99.13509178161621,233.34114583333334Q99.83333396911623,232.66666666666669,100.53157615661623,231.5546875L100.53157615661623,231.5546875Q101.22981834411623,230.44270833333331,101.89876365661621,228.78385416666666L101.89876365661621,228.78385416666666Q102.56770896911621,227.125,103.17806053161621,224.80989583333331L103.17806053161621,224.80989583333331Q103.7884120941162,222.49479166666666,104.31087303161621,219.4140625L104.31087303161621,219.4140625Q104.83333396911621,216.33333333333331,105.24349021911621,212.43229166666666L105.24349021911621,212.43229166666666Q105.6536464691162,208.53125,105.94661521911621,203.97395833333331L105.94661521911621,203.97395833333331Q106.23958396911621,199.41666666666666,106.35434964359132,194.4179839561956L106.59356829464112,183.99868271047106Q106.70833396911623,179,106.59356829464112,174.00131728952894L106.35434964359132,163.5820160438044Q106.23958396911621,158.58333333333334,105.94661521911621,154.02604166666669L105.94661521911621,154.02604166666669Q105.6536464691162,149.46875,105.2434902191162,145.56770833333331L105.2434902191162,145.56770833333331Q104.8333339691162,141.66666666666666,104.3108730316162,138.5859375L104.3108730316162,138.5859375Q103.7884120941162,135.50520833333331,103.17806053161621,133.19010416666666L103.1780605316162,133.19010416666666Q102.56770896911621,130.875,101.89876365661621,129.21614583333334L101.89876365661621,129.21614583333334Q101.22981834411621,127.55729166666667,100.53157615661621,126.4453125L100.53157615661621,126.4453125Q99.83333396911623,125.33333333333334,99.13509178161623,124.65885416666667L99.13509178161623,124.65885416666667Q98.43684959411623,123.984375,97.76790428161621,123.63802083333333L97.76790428161621,123.63802083333333Q97.09895896911621,123.29166666666666,94.71614646911621,123.14583333333333L92.33333396911621,123" class="draw2d_Connection" stroke-linecap="round" stroke-linejoin="round" stroke-opacity="1" stroke-width="3" stroke-dasharray="none" opacity="1">
</path>
<ellipse cx="92.33333396911621" cy="123" rx="5" ry="5" fill="url('#19090-_4F6870-rgba_103_135_146_1_')" stroke="#1b1b1b" class="draw2d_HybridPort" style="cursor: move; opacity: 1; fill-opacity: 1; display: none;" opacity="1" fill-opacity="1" x="92.33333396911621" y="123" stroke-opacity="1" stroke-width="2" stroke-dasharray="none">
</ellipse>
<rect x="20" y="134" width="72.33333396911621" height="22" rx="0" ry="0" fill="#000000" stroke="none" class="ChannelShape" style="opacity: 1;" stroke-width="0" fill-opacity="0" stroke-dasharray="none" opacity="1" transform="matrix(1,0,0,1,0,0)">
</rect>
<text style="text-anchor: start; font-family: &quot;Arial&quot;; font-size: 12px; font-weight: normal; opacity: 1;" x="25" y="10" text-anchor="start" font-family="&quot;Arial&quot;" font-size="12px" stroke="#000000" fill="#4a4a4a" stroke-scale="true" class="ChannelShape" font-weight="normal" fill-opacity="1" stroke-opacity="0" stroke-width="0" opacity="1" transform="matrix(1,0,0,1,20,134)">
<tspan dy="4">ch3</tspan>
</text>
<path style="stroke-linecap: round; stroke-linejoin: round; opacity: 1; cursor: default;" fill="none" stroke="#303030" d="M92.33333396911621,257L94.71614646911621,256.85416666666663Q97.09895896911623,256.7083333333333,97.76790428161621,256.36197916666663L97.76790428161621,256.36197916666663Q98.43684959411621,256.015625,99.13509178161621,255.34114583333334L99.13509178161621,255.34114583333334Q99.83333396911623,254.66666666666669,100.53157615661623,253.5546875L100.53157615661623,253.5546875Q101.22981834411623,252.44270833333331,101.89876365661621,250.78385416666666L101.89876365661621,250.78385416666666Q102.56770896911621,249.125,103.17806053161621,246.80989583333331L103.17806053161621,246.80989583333331Q103.7884120941162,244.49479166666666,104.31087303161621,241.41406249999997L104.31087303161621,241.41406249999997Q104.83333396911621,238.3333333333333,105.24349021911621,234.43229166666663L105.24349021911621,234.43229166666663Q105.6536464691162,230.53124999999997,105.9466152191162,225.97395833333331L105.94661521911621,225.97395833333331Q106.23958396911621,221.41666666666666,106.35434964359132,216.4179839561956L106.59356829464112,205.9986827104711Q106.70833396911623,201.00000000000003,106.59356829464112,196.00131728952897L106.35434964359132,185.58201604380437Q106.23958396911621,180.58333333333331,105.94661521911621,176.02604166666666L105.9466152191162,176.02604166666666Q105.6536464691162,171.46875,105.2434902191162,167.56770833333331L105.2434902191162,167.56770833333331Q104.8333339691162,163.66666666666666,104.3108730316162,160.5859375L104.3108730316162,160.5859375Q103.7884120941162,157.50520833333331,103.17806053161621,155.19010416666663L103.17806053161621,155.19010416666663Q102.56770896911621,152.87499999999997,101.89876365661621,151.21614583333331L101.89876365661621,151.21614583333331Q101.22981834411621,149.55729166666666,100.53157615661623,148.4453125L100.53157615661621,148.4453125Q99.83333396911623,147.33333333333334,99.13509178161623,146.65885416666666L99.13509178161623,146.65885416666666Q98.43684959411623,145.98437499999997,97.76790428161621,145.63802083333331L97.76790428161621,145.63802083333331Q97.09895896911621,145.29166666666666,94.71614646911621,145.14583333333331L92.33333396911621,145" stroke-linecap="round" stroke-linejoin="round" stroke-opacity="1" stroke-width="4" stroke-dasharray="none" opacity="1">
</path>
<path style="stroke-linecap: round; stroke-linejoin: round; opacity: 1; cursor: default;" fill="none" stroke="#00a8f0" d="M92.33333396911621,257L94.71614646911621,256.85416666666663Q97.09895896911623,256.7083333333333,97.76790428161621,256.36197916666663L97.76790428161621,256.36197916666663Q98.43684959411621,256.015625,99.13509178161621,255.34114583333334L99.13509178161621,255.34114583333334Q99.83333396911623,254.66666666666669,100.53157615661623,253.5546875L100.53157615661623,253.5546875Q101.22981834411623,252.44270833333331,101.89876365661621,250.78385416666666L101.89876365661621,250.78385416666666Q102.56770896911621,249.125,103.17806053161621,246.80989583333331L103.17806053161621,246.80989583333331Q103.7884120941162,244.49479166666666,104.31087303161621,241.41406249999997L104.31087303161621,241.41406249999997Q104.83333396911621,238.3333333333333,105.24349021911621,234.43229166666663L105.24349021911621,234.43229166666663Q105.6536464691162,230.53124999999997,105.9466152191162,225.97395833333331L105.94661521911621,225.97395833333331Q106.23958396911621,221.41666666666666,106.35434964359132,216.4179839561956L106.59356829464112,205.9986827104711Q106.70833396911623,201.00000000000003,106.59356829464112,196.00131728952897L106.35434964359132,185.58201604380437Q106.23958396911621,180.58333333333331,105.94661521911621,176.02604166666666L105.9466152191162,176.02604166666666Q105.6536464691162,171.46875,105.2434902191162,167.56770833333331L105.2434902191162,167.56770833333331Q104.8333339691162,163.66666666666666,104.3108730316162,160.5859375L104.3108730316162,160.5859375Q103.7884120941162,157.50520833333331,103.17806053161621,155.19010416666663L103.17806053161621,155.19010416666663Q102.56770896911621,152.87499999999997,101.89876365661621,151.21614583333331L101.89876365661621,151.21614583333331Q101.22981834411621,149.55729166666666,100.53157615661623,148.4453125L100.53157615661621,148.4453125Q99.83333396911623,147.33333333333334,99.13509178161623,146.65885416666666L99.13509178161623,146.65885416666666Q98.43684959411623,145.98437499999997,97.76790428161621,145.63802083333331L97.76790428161621,145.63802083333331Q97.09895896911621,145.29166666666666,94.71614646911621,145.14583333333331L92.33333396911621,145" class="draw2d_Connection" stroke-linecap="round" stroke-linejoin="round" stroke-opacity="1" stroke-width="3" stroke-dasharray="none" opacity="1">
</path>
<ellipse cx="92.33333396911621" cy="145" rx="5" ry="5" fill="url('#19390-_4F6870-rgba_103_135_146_1_')" stroke="#1b1b1b" class="draw2d_HybridPort" style="cursor: move; opacity: 1; fill-opacity: 1; display: none;" opacity="1" fill-opacity="1" x="92.33333396911621" y="145" stroke-opacity="1" stroke-width="2" stroke-dasharray="none">
</ellipse>
<rect x="20" y="156" width="73" height="112" rx="3" ry="3" fill="#dbddde" stroke="none" class="FPGAShapeVertical" style="opacity: 1;" stroke-width="0" fill-opacity="1" stroke-dasharray="none" opacity="1" transform="matrix(1,0,0,1,0,0)">
</rect>
<rect x="20" y="156" width="73" height="24" rx="0" ry="0" fill="#f7f7f7" stroke="none" class="draw2d_shape_basic_Label" style="opacity: 1;" stroke-width="0" fill-opacity="1" stroke-dasharray="none" opacity="1" transform="matrix(1,0,0,1,0,0)">
</rect>
<text style="text-anchor: start; font-family: &quot;Arial&quot;; font-size: 12px; font-weight: normal; opacity: 1;" x="25" y="12" text-anchor="start" font-family="&quot;Arial&quot;" font-size="12px" stroke="#000000" fill="#4a4a4a" stroke-scale="true" class="draw2d_shape_basic_Label" font-weight="normal" fill-opacity="1" stroke-opacity="0" stroke-width="0" opacity="1" transform="matrix(1,0,0,1,20,156)">
<tspan dy="4">acl1</tspan>
</text>
<rect x="20" y="180" width="72.33333396911621" height="22" rx="0" ry="0" fill="#000000" stroke="none" class="ChannelShape" style="opacity: 1;" stroke-width="0" fill-opacity="0" stroke-dasharray="none" opacity="1" transform="matrix(1,0,0,1,0,0)">
</rect>
<text style="text-anchor: start; font-family: &quot;Arial&quot;; font-size: 12px; font-weight: normal; opacity: 1;" x="25" y="10" text-anchor="start" font-family="&quot;Arial&quot;" font-size="12px" stroke="#000000" fill="#4a4a4a" stroke-scale="true" class="ChannelShape" font-weight="normal" fill-opacity="1" stroke-opacity="0" stroke-width="0" opacity="1" transform="matrix(1,0,0,1,20,180)">
<tspan dy="4">ch0</tspan>
</text>
<ellipse cx="92.33333396911621" cy="191" rx="5" ry="5" fill="url('#19990-_4F6870-rgba_103_135_146_1_')" stroke="#1b1b1b" class="draw2d_HybridPort" style="cursor: move; opacity: 1; fill-opacity: 1; display: none;" opacity="1" fill-opacity="1" x="92.33333396911621" y="191" stroke-opacity="1" stroke-width="1" stroke-dasharray="none">
</ellipse>
<rect x="20" y="202" width="72.33333396911621" height="22" rx="0" ry="0" fill="#000000" stroke="none" class="ChannelShape" style="opacity: 1;" stroke-width="0" fill-opacity="0" stroke-dasharray="none" opacity="1" transform="matrix(1,0,0,1,0,0)">
</rect>
<text style="text-anchor: start; font-family: &quot;Arial&quot;; font-size: 12px; font-weight: normal; opacity: 1;" x="25" y="10" text-anchor="start" font-family="&quot;Arial&quot;" font-size="12px" stroke="#000000" fill="#4a4a4a" stroke-scale="true" class="ChannelShape" font-weight="normal" fill-opacity="1" stroke-opacity="0" stroke-width="0" opacity="1" transform="matrix(1,0,0,1,20,202)">
<tspan dy="4">ch1</tspan>
</text>
<ellipse cx="92.33333396911621" cy="213" rx="5" ry="5" fill="url('#20290-_4F6870-rgba_103_135_146_1_')" stroke="#1b1b1b" class="draw2d_HybridPort" style="cursor: move; opacity: 1; fill-opacity: 1; display: none;" opacity="1" fill-opacity="1" x="92.33333396911621" y="213" stroke-opacity="1" stroke-width="1" stroke-dasharray="none">
</ellipse>
<rect x="20" y="224" width="72.33333396911621" height="22" rx="0" ry="0" fill="#000000" stroke="none" class="ChannelShape" style="opacity: 1;" stroke-width="0" fill-opacity="0" stroke-dasharray="none" opacity="1" transform="matrix(1,0,0,1,0,0)">
</rect>
<text style="text-anchor: start; font-family: &quot;Arial&quot;; font-size: 12px; font-weight: normal; opacity: 1;" x="25" y="10" text-anchor="start" font-family="&quot;Arial&quot;" font-size="12px" stroke="#000000" fill="#4a4a4a" stroke-scale="true" class="ChannelShape" font-weight="normal" fill-opacity="1" stroke-opacity="0" stroke-width="0" opacity="1" transform="matrix(1,0,0,1,20,224)">
<tspan dy="4">ch2</tspan>
</text>
<ellipse cx="92.33333396911621" cy="235" rx="5" ry="5" fill="url('#20590-_4F6870-rgba_103_135_146_1_')" stroke="#1b1b1b" class="draw2d_HybridPort" style="cursor: move; opacity: 1; fill-opacity: 1; display: none;" opacity="1" fill-opacity="1" x="92.33333396911621" y="235" stroke-opacity="1" stroke-width="1" stroke-dasharray="none">
</ellipse>
<rect x="20" y="246" width="72.33333396911621" height="22" rx="0" ry="0" fill="#000000" stroke="none" class="ChannelShape" style="opacity: 1;" stroke-width="0" fill-opacity="0" stroke-dasharray="none" opacity="1" transform="matrix(1,0,0,1,0,0)">
</rect>
<text style="text-anchor: start; font-family: &quot;Arial&quot;; font-size: 12px; font-weight: normal; opacity: 1;" x="25" y="10" text-anchor="start" font-family="&quot;Arial&quot;" font-size="12px" stroke="#000000" fill="#4a4a4a" stroke-scale="true" class="ChannelShape" font-weight="normal" fill-opacity="1" stroke-opacity="0" stroke-width="0" opacity="1" transform="matrix(1,0,0,1,20,246)">
<tspan dy="4">ch3</tspan>
</text>
<ellipse cx="92.33333396911621" cy="257" rx="5" ry="5" fill="url('#20890-_4F6870-rgba_103_135_146_1_')" stroke="#1b1b1b" class="draw2d_HybridPort" style="cursor: move; opacity: 1; fill-opacity: 1; display: none;" opacity="1" fill-opacity="1" x="92.33333396911621" y="257" stroke-opacity="1" stroke-width="1" stroke-dasharray="none">
</ellipse>
<rect x="160" y="20" width="73" height="248" rx="3" ry="3" fill="#dbddde" stroke="none" class="NodeShapeVertical" style="opacity: 1; cursor: default;" stroke-width="0" fill-opacity="1" stroke-dasharray="none" opacity="1" transform="matrix(1,0,0,1,0,0)">
</rect>
<rect x="160" y="20" width="73" height="24" rx="3" ry="3" fill="#1e90ff" stroke="#1b1b1b" class="draw2d_shape_basic_Label" style="opacity: 1;" stroke-opacity="1" stroke-width="1" fill-opacity="1" stroke-dasharray="none" opacity="1" transform="matrix(1,0,0,1,0,0)">
</rect>
<text style="text-anchor: start; font-family: &quot;Arial&quot;; font-size: 12px; font-weight: normal; opacity: 1;" x="26" y="12" text-anchor="start" font-family="&quot;Arial&quot;" font-size="12px" stroke="#000000" fill="#000000" stroke-scale="true" class="draw2d_shape_basic_Label" font-weight="normal" fill-opacity="1" stroke-opacity="0" stroke-width="0" opacity="1" transform="matrix(1,0,0,1,160,20)">
<tspan dy="4">n01</tspan>
</text>
<rect x="160" y="44" width="73" height="112" rx="3" ry="3" fill="#dbddde" stroke="none" class="FPGAShapeVertical" style="opacity: 1;" stroke-width="0" fill-opacity="1" stroke-dasharray="none" opacity="1" transform="matrix(1,0,0,1,0,0)">
</rect>
<rect x="160" y="44" width="73" height="24" rx="0" ry="0" fill="#f7f7f7" stroke="none" class="draw2d_shape_basic_Label" style="opacity: 1;" stroke-width="0" fill-opacity="1" stroke-dasharray="none" opacity="1" transform="matrix(1,0,0,1,0,0)">
</rect>
<text style="text-anchor: start; font-family: &quot;Arial&quot;; font-size: 12px; font-weight: normal; opacity: 1;" x="25" y="12" text-anchor="start" font-family="&quot;Arial&quot;" font-size="12px" stroke="#000000" fill="#4a4a4a" stroke-scale="true" class="draw2d_shape_basic_Label" font-weight="normal" fill-opacity="1" stroke-opacity="0" stroke-width="0" opacity="1" transform="matrix(1,0,0,1,160,44)">
<tspan dy="4">acl0</tspan>
</text>
<rect x="160" y="68" width="72.33333396911621" height="22" rx="0" ry="0" fill="#000000" stroke="none" class="ChannelShape" style="opacity: 1;" stroke-width="0" fill-opacity="0" stroke-dasharray="none" opacity="1" transform="matrix(1,0,0,1,0,0)">
</rect>
<text style="text-anchor: start; font-family: &quot;Arial&quot;; font-size: 12px; font-weight: normal; opacity: 1;" x="25" y="10" text-anchor="start" font-family="&quot;Arial&quot;" font-size="12px" stroke="#000000" fill="#4a4a4a" stroke-scale="true" class="ChannelShape" font-weight="normal" fill-opacity="1" stroke-opacity="0" stroke-width="0" opacity="1" transform="matrix(1,0,0,1,160,68)">
<tspan dy="4">ch0</tspan>
</text>
<path style="stroke-linecap: round; stroke-linejoin: round; opacity: 1;" fill="none" stroke="#303030" d="M232.3333339691162,191L234.7161464691162,190.85416666666666Q237.0989589691162,190.70833333333331,237.7679042816162,190.36197916666666L237.7679042816162,190.36197916666666Q238.4368495941162,190.015625,239.1350917816162,189.34114583333337L239.1350917816162,189.34114583333337Q239.8333339691162,188.6666666666667,240.5315761566162,187.55468750000003L240.5315761566162,187.55468750000003Q241.2298183441162,186.44270833333334,241.8987636566162,184.78385416666669L241.8987636566162,184.78385416666669Q242.5677089691162,183.125,243.1780605316162,180.80989583333331L243.1780605316162,180.80989583333331Q243.7884120941162,178.49479166666666,244.3108730316162,175.4140625L244.3108730316162,175.4140625Q244.8333339691162,172.33333333333331,245.2434902191162,168.43229166666666L245.2434902191162,168.43229166666666Q245.6536464691162,164.53125,245.9466152191162,159.97395833333331L245.9466152191162,159.97395833333331Q246.2395839691162,155.41666666666663,246.35434964359132,150.41798395619557L246.5935682946411,139.9986827104711Q246.7083339691162,135.00000000000003,246.5935682946411,130.00131728952897L246.35434964359132,119.5820160438044Q246.2395839691162,114.58333333333334,245.9466152191162,110.02604166666666L245.9466152191162,110.02604166666666Q245.6536464691162,105.46874999999999,245.2434902191162,101.56770833333333L245.2434902191162,101.56770833333333Q244.8333339691162,97.66666666666667,244.3108730316162,94.5859375L244.3108730316162,94.5859375Q243.7884120941162,91.50520833333333,243.1780605316162,89.19010416666666L243.1780605316162,89.19010416666666Q242.5677089691162,86.875,241.8987636566162,85.21614583333334L241.8987636566162,85.21614583333334Q241.2298183441162,83.55729166666667,240.5315761566162,82.4453125L240.5315761566162,82.4453125Q239.8333339691162,81.33333333333333,239.1350917816162,80.65885416666667L239.1350917816162,80.65885416666667Q238.4368495941162,79.98437500000001,237.7679042816162,79.63802083333334L237.7679042816162,79.63802083333334Q237.0989589691162,79.29166666666666,234.7161464691162,79.14583333333333L232.3333339691162,79" stroke-linecap="round" stroke-linejoin="round" stroke-opacity="1" stroke-width="4" stroke-dasharray="none" opacity="1">
</path>
<path style="stroke-linecap: round; stroke-linejoin: round; opacity: 1;" fill="none" stroke="#b9dd69" d="M232.3333339691162,191L234.7161464691162,190.85416666666666Q237.0989589691162,190.70833333333331,237.7679042816162,190.36197916666666L237.7679042816162,190.36197916666666Q238.4368495941162,190.015625,239.1350917816162,189.34114583333337L239.1350917816162,189.34114583333337Q239.8333339691162,188.6666666666667,240.5315761566162,187.55468750000003L240.5315761566162,187.55468750000003Q241.2298183441162,186.44270833333334,241.8987636566162,184.78385416666669L241.8987636566162,184.78385416666669Q242.5677089691162,183.125,243.1780605316162,180.80989583333331L243.1780605316162,180.80989583333331Q243.7884120941162,178.49479166666666,244.3108730316162,175.4140625L244.3108730316162,175.4140625Q244.8333339691162,172.33333333333331,245.2434902191162,168.43229166666666L245.2434902191162,168.43229166666666Q245.6536464691162,164.53125,245.9466152191162,159.97395833333331L245.9466152191162,159.97395833333331Q246.2395839691162,155.41666666666663,246.35434964359132,150.41798395619557L246.5935682946411,139.9986827104711Q246.7083339691162,135.00000000000003,246.5935682946411,130.00131728952897L246.35434964359132,119.5820160438044Q246.2395839691162,114.58333333333334,245.9466152191162,110.02604166666666L245.9466152191162,110.02604166666666Q245.6536464691162,105.46874999999999,245.2434902191162,101.56770833333333L245.2434902191162,101.56770833333333Q244.8333339691162,97.66666666666667,244.3108730316162,94.5859375L244.3108730316162,94.5859375Q243.7884120941162,91.50520833333333,243.1780605316162,89.19010416666666L243.1780605316162,89.19010416666666Q242.5677089691162,86.875,241.8987636566162,85.21614583333334L241.8987636566162,85.21614583333334Q241.2298183441162,83.55729166666667,240.5315761566162,82.4453125L240.5315761566162,82.4453125Q239.8333339691162,81.33333333333333,239.1350917816162,80.65885416666667L239.1350917816162,80.65885416666667Q238.4368495941162,79.98437500000001,237.7679042816162,79.63802083333334L237.7679042816162,79.63802083333334Q237.0989589691162,79.29166666666666,234.7161464691162,79.14583333333333L232.3333339691162,79" class="draw2d_Connection" stroke-linecap="round" stroke-linejoin="round" stroke-opacity="1" stroke-width="3" stroke-dasharray="none" opacity="1">
</path>
<ellipse cx="232.3333339691162" cy="79" rx="5" ry="5" fill="url('#21890-_4F6870-rgba_103_135_146_1_')" stroke="#1b1b1b" class="draw2d_HybridPort" style="cursor: move; opacity: 1; fill-opacity: 1; display: none;" opacity="1" fill-opacity="1" x="232.3333339691162" y="79" stroke-opacity="1" stroke-width="2" stroke-dasharray="none">
</ellipse>
<rect x="160" y="90" width="72.33333396911621" height="22" rx="0" ry="0" fill="#000000" stroke="none" class="ChannelShape" style="opacity: 1;" stroke-width="0" fill-opacity="0" stroke-dasharray="none" opacity="1" transform="matrix(1,0,0,1,0,0)">
</rect>
<text style="text-anchor: start; font-family: &quot;Arial&quot;; font-size: 12px; font-weight: normal; opacity: 1;" x="25" y="10" text-anchor="start" font-family="&quot;Arial&quot;" font-size="12px" stroke="#000000" fill="#4a4a4a" stroke-scale="true" class="ChannelShape" font-weight="normal" fill-opacity="1" stroke-opacity="0" stroke-width="0" opacity="1" transform="matrix(1,0,0,1,160,90)">
<tspan dy="4">ch1</tspan>
</text>
<path style="stroke-linecap: round; stroke-linejoin: round; opacity: 1; cursor: default;" fill="none" stroke="#303030" d="M232.3333339691162,213L234.7161464691162,212.85416666666669Q237.0989589691162,212.70833333333334,237.7679042816162,212.36197916666669L237.7679042816162,212.36197916666669Q238.4368495941162,212.015625,239.1350917816162,211.34114583333331L239.1350917816162,211.34114583333331Q239.8333339691162,210.66666666666666,240.5315761566162,209.5546875L240.5315761566162,209.5546875Q241.2298183441162,208.44270833333334,241.8987636566162,206.78385416666669L241.8987636566162,206.78385416666669Q242.5677089691162,205.125,243.1780605316162,202.80989583333331L243.1780605316162,202.80989583333331Q243.7884120941162,200.49479166666666,244.3108730316162,197.4140625L244.3108730316162,197.4140625Q244.8333339691162,194.33333333333334,245.2434902191162,190.43229166666669L245.2434902191162,190.43229166666669Q245.6536464691162,186.53125,245.9466152191162,181.97395833333334L245.9466152191162,181.97395833333334Q246.2395839691162,177.41666666666669,246.35434964359132,172.41798395619563L246.5935682946411,161.99868271047106Q246.7083339691162,157,246.5935682946411,152.00131728952894L246.35434964359132,141.58201604380437Q246.2395839691162,136.58333333333331,245.9466152191162,132.02604166666666L245.9466152191162,132.02604166666666Q245.6536464691162,127.46875,245.2434902191162,123.56770833333333L245.2434902191162,123.56770833333333Q244.8333339691162,119.66666666666666,244.3108730316162,116.5859375L244.3108730316162,116.5859375Q243.7884120941162,113.50520833333333,243.1780605316162,111.19010416666666L243.1780605316162,111.19010416666666Q242.5677089691162,108.87499999999999,241.8987636566162,107.21614583333331L241.8987636566162,107.21614583333331Q241.2298183441162,105.55729166666666,240.5315761566162,104.4453125L240.5315761566162,104.4453125Q239.8333339691162,103.33333333333334,239.1350917816162,102.65885416666666L239.1350917816162,102.65885416666666Q238.4368495941162,101.98437499999999,237.7679042816162,101.63802083333331L237.7679042816162,101.63802083333331Q237.0989589691162,101.29166666666666,234.7161464691162,101.14583333333333L232.3333339691162,101" stroke-linecap="round" stroke-linejoin="round" stroke-opacity="1" stroke-width="4" stroke-dasharray="none" opacity="1">
</path>
<path style="stroke-linecap: round; stroke-linejoin: round; opacity: 1; cursor: default;" fill="none" stroke="#f3546a" d="M232.3333339691162,213L234.7161464691162,212.85416666666669Q237.0989589691162,212.70833333333334,237.7679042816162,212.36197916666669L237.7679042816162,212.36197916666669Q238.4368495941162,212.015625,239.1350917816162,211.34114583333331L239.1350917816162,211.34114583333331Q239.8333339691162,210.66666666666666,240.5315761566162,209.5546875L240.5315761566162,209.5546875Q241.2298183441162,208.44270833333334,241.8987636566162,206.78385416666669L241.8987636566162,206.78385416666669Q242.5677089691162,205.125,243.1780605316162,202.80989583333331L243.1780605316162,202.80989583333331Q243.7884120941162,200.49479166666666,244.3108730316162,197.4140625L244.3108730316162,197.4140625Q244.8333339691162,194.33333333333334,245.2434902191162,190.43229166666669L245.2434902191162,190.43229166666669Q245.6536464691162,186.53125,245.9466152191162,181.97395833333334L245.9466152191162,181.97395833333334Q246.2395839691162,177.41666666666669,246.35434964359132,172.41798395619563L246.5935682946411,161.99868271047106Q246.7083339691162,157,246.5935682946411,152.00131728952894L246.35434964359132,141.58201604380437Q246.2395839691162,136.58333333333331,245.9466152191162,132.02604166666666L245.9466152191162,132.02604166666666Q245.6536464691162,127.46875,245.2434902191162,123.56770833333333L245.2434902191162,123.56770833333333Q244.8333339691162,119.66666666666666,244.3108730316162,116.5859375L244.3108730316162,116.5859375Q243.7884120941162,113.50520833333333,243.1780605316162,111.19010416666666L243.1780605316162,111.19010416666666Q242.5677089691162,108.87499999999999,241.8987636566162,107.21614583333331L241.8987636566162,107.21614583333331Q241.2298183441162,105.55729166666666,240.5315761566162,104.4453125L240.5315761566162,104.4453125Q239.8333339691162,103.33333333333334,239.1350917816162,102.65885416666666L239.1350917816162,102.65885416666666Q238.4368495941162,101.98437499999999,237.7679042816162,101.63802083333331L237.7679042816162,101.63802083333331Q237.0989589691162,101.29166666666666,234.7161464691162,101.14583333333333L232.3333339691162,101" class="draw2d_Connection" stroke-linecap="round" stroke-linejoin="round" stroke-opacity="1" stroke-width="3" stroke-dasharray="none" opacity="1">
</path>
<ellipse cx="232.3333339691162" cy="101" rx="5" ry="5" fill="url('#22190-_4F6870-rgba_103_135_146_1_')" stroke="#1b1b1b" class="draw2d_HybridPort" style="cursor: move; opacity: 1; fill-opacity: 1; display: none;" opacity="1" fill-opacity="1" x="232.3333339691162" y="101" stroke-opacity="1" stroke-width="2" stroke-dasharray="none">
</ellipse>
<rect x="160" y="112" width="72.33333396911621" height="22" rx="0" ry="0" fill="#000000" stroke="none" class="ChannelShape" style="opacity: 1;" stroke-width="0" fill-opacity="0" stroke-dasharray="none" opacity="1" transform="matrix(1,0,0,1,0,0)">
</rect>
<text style="text-anchor: start; font-family: &quot;Arial&quot;; font-size: 12px; font-weight: normal; opacity: 1;" x="25" y="10" text-anchor="start" font-family="&quot;Arial&quot;" font-size="12px" stroke="#000000" fill="#4a4a4a" stroke-scale="true" class="ChannelShape" font-weight="normal" fill-opacity="1" stroke-opacity="0" stroke-width="0" opacity="1" transform="matrix(1,0,0,1,160,112)">
<tspan dy="4">ch2</tspan>
</text>
<path style="stroke-linecap: round; stroke-linejoin: round; opacity: 1; cursor: default;" fill="none" stroke="#303030" d="M232.3333339691162,235L234.7161464691162,234.85416666666666Q237.0989589691162,234.70833333333331,237.7679042816162,234.36197916666666L237.7679042816162,234.36197916666666Q238.4368495941162,234.015625,239.1350917816162,233.34114583333334L239.1350917816162,233.34114583333334Q239.8333339691162,232.66666666666669,240.5315761566162,231.5546875L240.5315761566162,231.5546875Q241.2298183441162,230.44270833333331,241.8987636566162,228.78385416666666L241.8987636566162,228.78385416666666Q242.5677089691162,227.125,243.1780605316162,224.80989583333331L243.1780605316162,224.80989583333331Q243.7884120941162,222.49479166666666,244.3108730316162,219.4140625L244.3108730316162,219.4140625Q244.8333339691162,216.33333333333331,245.2434902191162,212.43229166666666L245.2434902191162,212.43229166666666Q245.6536464691162,208.53125,245.9466152191162,203.97395833333331L245.9466152191162,203.97395833333331Q246.2395839691162,199.41666666666666,246.35434964359132,194.4179839561956L246.5935682946411,183.99868271047106Q246.7083339691162,179,246.5935682946411,174.00131728952894L246.35434964359132,163.5820160438044Q246.2395839691162,158.58333333333334,245.9466152191162,154.02604166666669L245.9466152191162,154.02604166666669Q245.6536464691162,149.46875,245.2434902191162,145.56770833333331L245.2434902191162,145.56770833333331Q244.8333339691162,141.66666666666666,244.3108730316162,138.5859375L244.3108730316162,138.5859375Q243.7884120941162,135.50520833333331,243.1780605316162,133.19010416666666L243.1780605316162,133.19010416666666Q242.5677089691162,130.875,241.8987636566162,129.21614583333334L241.8987636566162,129.21614583333334Q241.2298183441162,127.55729166666667,240.5315761566162,126.4453125L240.5315761566162,126.4453125Q239.8333339691162,125.33333333333334,239.1350917816162,124.65885416666667L239.1350917816162,124.65885416666667Q238.4368495941162,123.984375,237.7679042816162,123.63802083333333L237.7679042816162,123.63802083333333Q237.0989589691162,123.29166666666666,234.7161464691162,123.14583333333333L232.3333339691162,123" stroke-linecap="round" stroke-linejoin="round" stroke-opacity="1" stroke-width="4" stroke-dasharray="none" opacity="1">
</path>
<path style="stroke-linecap: round; stroke-linejoin: round; opacity: 1; cursor: default;" fill="none" stroke="#ffff99" d="M232.3333339691162,235L234.7161464691162,234.85416666666666Q237.0989589691162,234.70833333333331,237.7679042816162,234.36197916666666L237.7679042816162,234.36197916666666Q238.4368495941162,234.015625,239.1350917816162,233.34114583333334L239.1350917816162,233.34114583333334Q239.8333339691162,232.66666666666669,240.5315761566162,231.5546875L240.5315761566162,231.5546875Q241.2298183441162,230.44270833333331,241.8987636566162,228.78385416666666L241.8987636566162,228.78385416666666Q242.5677089691162,227.125,243.1780605316162,224.80989583333331L243.1780605316162,224.80989583333331Q243.7884120941162,222.49479166666666,244.3108730316162,219.4140625L244.3108730316162,219.4140625Q244.8333339691162,216.33333333333331,245.2434902191162,212.43229166666666L245.2434902191162,212.43229166666666Q245.6536464691162,208.53125,245.9466152191162,203.97395833333331L245.9466152191162,203.97395833333331Q246.2395839691162,199.41666666666666,246.35434964359132,194.4179839561956L246.5935682946411,183.99868271047106Q246.7083339691162,179,246.5935682946411,174.00131728952894L246.35434964359132,163.5820160438044Q246.2395839691162,158.58333333333334,245.9466152191162,154.02604166666669L245.9466152191162,154.02604166666669Q245.6536464691162,149.46875,245.2434902191162,145.56770833333331L245.2434902191162,145.56770833333331Q244.8333339691162,141.66666666666666,244.3108730316162,138.5859375L244.3108730316162,138.5859375Q243.7884120941162,135.50520833333331,243.1780605316162,133.19010416666666L243.1780605316162,133.19010416666666Q242.5677089691162,130.875,241.8987636566162,129.21614583333334L241.8987636566162,129.21614583333334Q241.2298183441162,127.55729166666667,240.5315761566162,126.4453125L240.5315761566162,126.4453125Q239.8333339691162,125.33333333333334,239.1350917816162,124.65885416666667L239.1350917816162,124.65885416666667Q238.4368495941162,123.984375,237.7679042816162,123.63802083333333L237.7679042816162,123.63802083333333Q237.0989589691162,123.29166666666666,234.7161464691162,123.14583333333333L232.3333339691162,123" class="draw2d_Connection" stroke-linecap="round" stroke-linejoin="round" stroke-opacity="1" stroke-width="3" stroke-dasharray="none" opacity="1">
</path>
<ellipse cx="232.3333339691162" cy="123" rx="5" ry="5" fill="url('#22490-_4F6870-rgba_103_135_146_1_')" stroke="#1b1b1b" class="draw2d_HybridPort" style="cursor: move; opacity: 1; fill-opacity: 1; display: none;" opacity="1" fill-opacity="1" x="232.3333339691162" y="123" stroke-opacity="1" stroke-width="2" stroke-dasharray="none">
</ellipse>
<rect x="160" y="134" width="72.33333396911621" height="22" rx="0" ry="0" fill="#000000" stroke="none" class="ChannelShape" style="opacity: 1;" stroke-width="0" fill-opacity="0" stroke-dasharray="none" opacity="1" transform="matrix(1,0,0,1,0,0)">
</rect>
<text style="text-anchor: start; font-family: &quot;Arial&quot;; font-size: 12px; font-weight: normal; opacity: 1;" x="25" y="10" text-anchor="start" font-family="&quot;Arial&quot;" font-size="12px" stroke="#000000" fill="#4a4a4a" stroke-scale="true" class="ChannelShape" font-weight="normal" fill-opacity="1" stroke-opacity="0" stroke-width="0" opacity="1" transform="matrix(1,0,0,1,160,134)">
<tspan dy="4">ch3</tspan>
</text>
<path style="stroke-linecap: round; stroke-linejoin: round; opacity: 1; cursor: default;" fill="none" stroke="#303030" d="M232.3333339691162,257L234.7161464691162,256.85416666666663Q237.0989589691162,256.7083333333333,237.7679042816162,256.36197916666663L237.7679042816162,256.36197916666663Q238.4368495941162,256.015625,239.1350917816162,255.34114583333334L239.1350917816162,255.34114583333334Q239.8333339691162,254.66666666666669,240.5315761566162,253.5546875L240.5315761566162,253.5546875Q241.2298183441162,252.44270833333331,241.8987636566162,250.78385416666666L241.8987636566162,250.78385416666666Q242.5677089691162,249.125,243.1780605316162,246.80989583333331L243.1780605316162,246.80989583333331Q243.7884120941162,244.49479166666666,244.3108730316162,241.41406249999997L244.3108730316162,241.41406249999997Q244.8333339691162,238.3333333333333,245.2434902191162,234.43229166666663L245.2434902191162,234.43229166666663Q245.6536464691162,230.53124999999997,245.9466152191162,225.97395833333331L245.9466152191162,225.97395833333331Q246.2395839691162,221.41666666666666,246.35434964359132,216.4179839561956L246.5935682946411,205.9986827104711Q246.7083339691162,201.00000000000003,246.5935682946411,196.00131728952897L246.35434964359132,185.58201604380437Q246.2395839691162,180.58333333333331,245.9466152191162,176.02604166666666L245.9466152191162,176.02604166666666Q245.6536464691162,171.46875,245.2434902191162,167.56770833333331L245.2434902191162,167.56770833333331Q244.8333339691162,163.66666666666666,244.3108730316162,160.5859375L244.3108730316162,160.5859375Q243.7884120941162,157.50520833333331,243.1780605316162,155.19010416666663L243.1780605316162,155.19010416666663Q242.5677089691162,152.87499999999997,241.8987636566162,151.21614583333331L241.8987636566162,151.21614583333331Q241.2298183441162,149.55729166666666,240.5315761566162,148.4453125L240.5315761566162,148.4453125Q239.8333339691162,147.33333333333334,239.1350917816162,146.65885416666666L239.1350917816162,146.65885416666666Q238.4368495941162,145.98437499999997,237.7679042816162,145.63802083333331L237.7679042816162,145.63802083333331Q237.0989589691162,145.29166666666666,234.7161464691162,145.14583333333331L232.3333339691162,145" stroke-linecap="round" stroke-linejoin="round" stroke-opacity="1" stroke-width="4" stroke-dasharray="none" opacity="1">
</path>
<path style="stroke-linecap: round; stroke-linejoin: round; opacity: 1; cursor: default;" fill="none" stroke="#00a8f0" d="M232.3333339691162,257L234.7161464691162,256.85416666666663Q237.0989589691162,256.7083333333333,237.7679042816162,256.36197916666663L237.7679042816162,256.36197916666663Q238.4368495941162,256.015625,239.1350917816162,255.34114583333334L239.1350917816162,255.34114583333334Q239.8333339691162,254.66666666666669,240.5315761566162,253.5546875L240.5315761566162,253.5546875Q241.2298183441162,252.44270833333331,241.8987636566162,250.78385416666666L241.8987636566162,250.78385416666666Q242.5677089691162,249.125,243.1780605316162,246.80989583333331L243.1780605316162,246.80989583333331Q243.7884120941162,244.49479166666666,244.3108730316162,241.41406249999997L244.3108730316162,241.41406249999997Q244.8333339691162,238.3333333333333,245.2434902191162,234.43229166666663L245.2434902191162,234.43229166666663Q245.6536464691162,230.53124999999997,245.9466152191162,225.97395833333331L245.9466152191162,225.97395833333331Q246.2395839691162,221.41666666666666,246.35434964359132,216.4179839561956L246.5935682946411,205.9986827104711Q246.7083339691162,201.00000000000003,246.5935682946411,196.00131728952897L246.35434964359132,185.58201604380437Q246.2395839691162,180.58333333333331,245.9466152191162,176.02604166666666L245.9466152191162,176.02604166666666Q245.6536464691162,171.46875,245.2434902191162,167.56770833333331L245.2434902191162,167.56770833333331Q244.8333339691162,163.66666666666666,244.3108730316162,160.5859375L244.3108730316162,160.5859375Q243.7884120941162,157.50520833333331,243.1780605316162,155.19010416666663L243.1780605316162,155.19010416666663Q242.5677089691162,152.87499999999997,241.8987636566162,151.21614583333331L241.8987636566162,151.21614583333331Q241.2298183441162,149.55729166666666,240.5315761566162,148.4453125L240.5315761566162,148.4453125Q239.8333339691162,147.33333333333334,239.1350917816162,146.65885416666666L239.1350917816162,146.65885416666666Q238.4368495941162,145.98437499999997,237.7679042816162,145.63802083333331L237.7679042816162,145.63802083333331Q237.0989589691162,145.29166666666666,234.7161464691162,145.14583333333331L232.3333339691162,145" class="draw2d_Connection" stroke-linecap="round" stroke-linejoin="round" stroke-opacity="1" stroke-width="3" stroke-dasharray="none" opacity="1">
</path>
<ellipse cx="232.3333339691162" cy="145" rx="5" ry="5" fill="url('#22790-_4F6870-rgba_103_135_146_1_')" stroke="#1b1b1b" class="draw2d_HybridPort" style="cursor: move; opacity: 1; fill-opacity: 1; display: none;" opacity="1" fill-opacity="1" x="232.3333339691162" y="145" stroke-opacity="1" stroke-width="2" stroke-dasharray="none">
</ellipse>
<rect x="160" y="156" width="73" height="112" rx="3" ry="3" fill="#dbddde" stroke="none" class="FPGAShapeVertical" style="opacity: 1;" stroke-width="0" fill-opacity="1" stroke-dasharray="none" opacity="1" transform="matrix(1,0,0,1,0,0)">
</rect>
<rect x="160" y="156" width="73" height="24" rx="0" ry="0" fill="#f7f7f7" stroke="none" class="draw2d_shape_basic_Label" style="opacity: 1;" stroke-width="0" fill-opacity="1" stroke-dasharray="none" opacity="1" transform="matrix(1,0,0,1,0,0)">
</rect>
<text style="text-anchor: start; font-family: &quot;Arial&quot;; font-size: 12px; font-weight: normal; opacity: 1;" x="25" y="12" text-anchor="start" font-family="&quot;Arial&quot;" font-size="12px" stroke="#000000" fill="#4a4a4a" stroke-scale="true" class="draw2d_shape_basic_Label" font-weight="normal" fill-opacity="1" stroke-opacity="0" stroke-width="0" opacity="1" transform="matrix(1,0,0,1,160,156)">
<tspan dy="4">acl1</tspan>
</text>
<rect x="160" y="180" width="72.33333396911621" height="22" rx="0" ry="0" fill="#000000" stroke="none" class="ChannelShape" style="opacity: 1;" stroke-width="0" fill-opacity="0" stroke-dasharray="none" opacity="1" transform="matrix(1,0,0,1,0,0)">
</rect>
<text style="text-anchor: start; font-family: &quot;Arial&quot;; font-size: 12px; font-weight: normal; opacity: 1;" x="25" y="10" text-anchor="start" font-family="&quot;Arial&quot;" font-size="12px" stroke="#000000" fill="#4a4a4a" stroke-scale="true" class="ChannelShape" font-weight="normal" fill-opacity="1" stroke-opacity="0" stroke-width="0" opacity="1" transform="matrix(1,0,0,1,160,180)">
<tspan dy="4">ch0</tspan>
</text>
<ellipse cx="232.3333339691162" cy="191" rx="5" ry="5" fill="url('#23390-_4F6870-rgba_103_135_146_1_')" stroke="#1b1b1b" class="draw2d_HybridPort" style="cursor: move; opacity: 1; fill-opacity: 1; display: none;" opacity="1" fill-opacity="1" x="232.3333339691162" y="191" stroke-opacity="1" stroke-width="1" stroke-dasharray="none">
</ellipse>
<rect x="160" y="202" width="72.33333396911621" height="22" rx="0" ry="0" fill="#000000" stroke="none" class="ChannelShape" style="opacity: 1;" stroke-width="0" fill-opacity="0" stroke-dasharray="none" opacity="1" transform="matrix(1,0,0,1,0,0)">
</rect>
<text style="text-anchor: start; font-family: &quot;Arial&quot;; font-size: 12px; font-weight: normal; opacity: 1;" x="25" y="10" text-anchor="start" font-family="&quot;Arial&quot;" font-size="12px" stroke="#000000" fill="#4a4a4a" stroke-scale="true" class="ChannelShape" font-weight="normal" fill-opacity="1" stroke-opacity="0" stroke-width="0" opacity="1" transform="matrix(1,0,0,1,160,202)">
<tspan dy="4">ch1</tspan>
</text>
<ellipse cx="232.3333339691162" cy="213" rx="5" ry="5" fill="url('#23690-_4F6870-rgba_103_135_146_1_')" stroke="#1b1b1b" class="draw2d_HybridPort" style="cursor: move; opacity: 1; fill-opacity: 1; display: none;" opacity="1" fill-opacity="1" x="232.3333339691162" y="213" stroke-opacity="1" stroke-width="1" stroke-dasharray="none">
</ellipse>
<rect x="160" y="224" width="72.33333396911621" height="22" rx="0" ry="0" fill="#000000" stroke="none" class="ChannelShape" style="opacity: 1;" stroke-width="0" fill-opacity="0" stroke-dasharray="none" opacity="1" transform="matrix(1,0,0,1,0,0)">
</rect>
<text style="text-anchor: start; font-family: &quot;Arial&quot;; font-size: 12px; font-weight: normal; opacity: 1;" x="25" y="10" text-anchor="start" font-family="&quot;Arial&quot;" font-size="12px" stroke="#000000" fill="#4a4a4a" stroke-scale="true" class="ChannelShape" font-weight="normal" fill-opacity="1" stroke-opacity="0" stroke-width="0" opacity="1" transform="matrix(1,0,0,1,160,224)">
<tspan dy="4">ch2</tspan>
</text>
<ellipse cx="232.3333339691162" cy="235" rx="5" ry="5" fill="url('#23990-_4F6870-rgba_103_135_146_1_')" stroke="#1b1b1b" class="draw2d_HybridPort" style="cursor: move; opacity: 1; fill-opacity: 1; display: none;" opacity="1" fill-opacity="1" x="232.3333339691162" y="235" stroke-opacity="1" stroke-width="1" stroke-dasharray="none">
</ellipse>
<rect x="160" y="246" width="72.33333396911621" height="22" rx="0" ry="0" fill="#000000" stroke="none" class="ChannelShape" style="opacity: 1;" stroke-width="0" fill-opacity="0" stroke-dasharray="none" opacity="1" transform="matrix(1,0,0,1,0,0)">
</rect>
<text style="text-anchor: start; font-family: &quot;Arial&quot;; font-size: 12px; font-weight: normal; opacity: 1;" x="25" y="10" text-anchor="start" font-family="&quot;Arial&quot;" font-size="12px" stroke="#000000" fill="#4a4a4a" stroke-scale="true" class="ChannelShape" font-weight="normal" fill-opacity="1" stroke-opacity="0" stroke-width="0" opacity="1" transform="matrix(1,0,0,1,160,246)">
<tspan dy="4">ch3</tspan>
</text>
<ellipse cx="232.3333339691162" cy="257" rx="5" ry="5" fill="url('#24290-_4F6870-rgba_103_135_146_1_')" stroke="#1b1b1b" class="draw2d_HybridPort" style="cursor: move; opacity: 1; fill-opacity: 1; display: none;" opacity="1" fill-opacity="1" x="232.3333339691162" y="257" stroke-opacity="1" stroke-width="1" stroke-dasharray="none">
</ellipse>
<rect x="300" y="20" width="73" height="248" rx="3" ry="3" fill="#dbddde" stroke="none" class="NodeShapeVertical" style="opacity: 1; cursor: default;" stroke-width="0" fill-opacity="1" stroke-dasharray="none" opacity="1" transform="matrix(1,0,0,1,0,0)">
</rect>
<rect x="300" y="20" width="73" height="24" rx="3" ry="3" fill="#1e90ff" stroke="#1b1b1b" class="draw2d_shape_basic_Label" style="opacity: 1;" stroke-opacity="1" stroke-width="1" fill-opacity="1" stroke-dasharray="none" opacity="1" transform="matrix(1,0,0,1,0,0)">
</rect>
<text style="text-anchor: start; font-family: &quot;Arial&quot;; font-size: 12px; font-weight: normal; opacity: 1;" x="26" y="12" text-anchor="start" font-family="&quot;Arial&quot;" font-size="12px" stroke="#000000" fill="#000000" stroke-scale="true" class="draw2d_shape_basic_Label" font-weight="normal" fill-opacity="1" stroke-opacity="0" stroke-width="0" opacity="1" transform="matrix(1,0,0,1,300,20)">
<tspan dy="4">n02</tspan>
</text>
<rect x="300" y="44" width="73" height="112" rx="3" ry="3" fill="#dbddde" stroke="none" class="FPGAShapeVertical" style="opacity: 1;" stroke-width="0" fill-opacity="1" stroke-dasharray="none" opacity="1" transform="matrix(1,0,0,1,0,0)">
</rect>
<rect x="300" y="44" width="73" height="24" rx="0" ry="0" fill="#f7f7f7" stroke="none" class="draw2d_shape_basic_Label" style="opacity: 1;" stroke-width="0" fill-opacity="1" stroke-dasharray="none" opacity="1" transform="matrix(1,0,0,1,0,0)">
</rect>
<text style="text-anchor: start; font-family: &quot;Arial&quot;; font-size: 12px; font-weight: normal; opacity: 1;" x="25" y="12" text-anchor="start" font-family="&quot;Arial&quot;" font-size="12px" stroke="#000000" fill="#4a4a4a" stroke-scale="true" class="draw2d_shape_basic_Label" font-weight="normal" fill-opacity="1" stroke-opacity="0" stroke-width="0" opacity="1" transform="matrix(1,0,0,1,300,44)">
<tspan dy="4">acl0</tspan>
</text>
<rect x="300" y="68" width="72.33333396911621" height="22" rx="0" ry="0" fill="#000000" stroke="none" class="ChannelShape" style="opacity: 1;" stroke-width="0" fill-opacity="0" stroke-dasharray="none" opacity="1" transform="matrix(1,0,0,1,0,0)">
</rect>
<text style="text-anchor: start; font-family: &quot;Arial&quot;; font-size: 12px; font-weight: normal; opacity: 1;" x="25" y="10" text-anchor="start" font-family="&quot;Arial&quot;" font-size="12px" stroke="#000000" fill="#4a4a4a" stroke-scale="true" class="ChannelShape" font-weight="normal" fill-opacity="1" stroke-opacity="0" stroke-width="0" opacity="1" transform="matrix(1,0,0,1,300,68)">
<tspan dy="4">ch0</tspan>
</text>
<path style="stroke-linecap: round; stroke-linejoin: round; opacity: 1;" fill="none" stroke="#303030" d="M372.3333339691162,191L374.7161464691162,190.85416666666666Q377.09895896911615,190.70833333333331,377.7679042816162,190.36197916666666L377.7679042816162,190.36197916666666Q378.4368495941162,190.015625,379.1350917816162,189.34114583333337L379.1350917816162,189.34114583333337Q379.83333396911627,188.6666666666667,380.5315761566162,187.55468750000003L380.5315761566162,187.55468750000003Q381.22981834411615,186.44270833333334,381.8987636566162,184.78385416666669L381.8987636566162,184.78385416666669Q382.5677089691162,183.125,383.1780605316162,180.80989583333331L383.1780605316162,180.80989583333331Q383.7884120941162,178.49479166666666,384.3108730316162,175.4140625L384.3108730316162,175.4140625Q384.83333396911615,172.33333333333331,385.2434902191162,168.43229166666666L385.2434902191162,168.43229166666666Q385.6536464691162,164.53125,385.9466152191162,159.97395833333331L385.9466152191162,159.97395833333331Q386.23958396911615,155.41666666666663,386.35434964359126,150.41798395619557L386.59356829464116,139.9986827104711Q386.70833396911627,135.00000000000003,386.59356829464116,130.00131728952897L386.3543496435913,119.5820160438044Q386.2395839691162,114.58333333333334,385.9466152191162,110.02604166666666L385.9466152191162,110.02604166666666Q385.6536464691162,105.46874999999999,385.2434902191162,101.56770833333333L385.2434902191162,101.56770833333333Q384.83333396911615,97.66666666666667,384.3108730316162,94.5859375L384.3108730316162,94.5859375Q383.7884120941162,91.50520833333333,383.1780605316162,89.19010416666666L383.1780605316162,89.19010416666666Q382.56770896911615,86.875,381.8987636566162,85.21614583333334L381.8987636566162,85.21614583333334Q381.2298183441162,83.55729166666667,380.5315761566162,82.4453125L380.5315761566162,82.4453125Q379.83333396911627,81.33333333333333,379.1350917816162,80.65885416666667L379.1350917816162,80.65885416666667Q378.43684959411615,79.98437500000001,377.7679042816162,79.63802083333334L377.7679042816162,79.63802083333334Q377.0989589691162,79.29166666666666,374.7161464691162,79.14583333333333L372.3333339691162,79" stroke-linecap="round" stroke-linejoin="round" stroke-opacity="1" stroke-width="4" stroke-dasharray="none" opacity="1">
</path>
<path style="stroke-linecap: round; stroke-linejoin: round; opacity: 1;" fill="none" stroke="#b9dd69" d="M372.3333339691162,191L374.7161464691162,190.85416666666666Q377.09895896911615,190.70833333333331,377.7679042816162,190.36197916666666L377.7679042816162,190.36197916666666Q378.4368495941162,190.015625,379.1350917816162,189.34114583333337L379.1350917816162,189.34114583333337Q379.83333396911627,188.6666666666667,380.5315761566162,187.55468750000003L380.5315761566162,187.55468750000003Q381.22981834411615,186.44270833333334,381.8987636566162,184.78385416666669L381.8987636566162,184.78385416666669Q382.5677089691162,183.125,383.1780605316162,180.80989583333331L383.1780605316162,180.80989583333331Q383.7884120941162,178.49479166666666,384.3108730316162,175.4140625L384.3108730316162,175.4140625Q384.83333396911615,172.33333333333331,385.2434902191162,168.43229166666666L385.2434902191162,168.43229166666666Q385.6536464691162,164.53125,385.9466152191162,159.97395833333331L385.9466152191162,159.97395833333331Q386.23958396911615,155.41666666666663,386.35434964359126,150.41798395619557L386.59356829464116,139.9986827104711Q386.70833396911627,135.00000000000003,386.59356829464116,130.00131728952897L386.3543496435913,119.5820160438044Q386.2395839691162,114.58333333333334,385.9466152191162,110.02604166666666L385.9466152191162,110.02604166666666Q385.6536464691162,105.46874999999999,385.2434902191162,101.56770833333333L385.2434902191162,101.56770833333333Q384.83333396911615,97.66666666666667,384.3108730316162,94.5859375L384.3108730316162,94.5859375Q383.7884120941162,91.50520833333333,383.1780605316162,89.19010416666666L383.1780605316162,89.19010416666666Q382.56770896911615,86.875,381.8987636566162,85.21614583333334L381.8987636566162,85.21614583333334Q381.2298183441162,83.55729166666667,380.5315761566162,82.4453125L380.5315761566162,82.4453125Q379.83333396911627,81.33333333333333,379.1350917816162,80.65885416666667L379.1350917816162,80.65885416666667Q378.43684959411615,79.98437500000001,377.7679042816162,79.63802083333334L377.7679042816162,79.63802083333334Q377.0989589691162,79.29166666666666,374.7161464691162,79.14583333333333L372.3333339691162,79" class="draw2d_Connection" stroke-linecap="round" stroke-linejoin="round" stroke-opacity="1" stroke-width="3" stroke-dasharray="none" opacity="1">
</path>
<ellipse cx="372.3333339691162" cy="79" rx="5" ry="5" fill="url('#25290-_4F6870-rgba_103_135_146_1_')" stroke="#1b1b1b" class="draw2d_HybridPort" style="cursor: move; opacity: 1; fill-opacity: 1; display: none;" opacity="1" fill-opacity="1" x="372.3333339691162" y="79" stroke-opacity="1" stroke-width="2" stroke-dasharray="none">
</ellipse>
<rect x="300" y="90" width="72.33333396911621" height="22" rx="0" ry="0" fill="#000000" stroke="none" class="ChannelShape" style="opacity: 1;" stroke-width="0" fill-opacity="0" stroke-dasharray="none" opacity="1" transform="matrix(1,0,0,1,0,0)">
</rect>
<text style="text-anchor: start; font-family: &quot;Arial&quot;; font-size: 12px; font-weight: normal; opacity: 1;" x="25" y="10" text-anchor="start" font-family="&quot;Arial&quot;" font-size="12px" stroke="#000000" fill="#4a4a4a" stroke-scale="true" class="ChannelShape" font-weight="normal" fill-opacity="1" stroke-opacity="0" stroke-width="0" opacity="1" transform="matrix(1,0,0,1,300,90)">
<tspan dy="4">ch1</tspan>
</text>
<path style="stroke-linecap: round; stroke-linejoin: round; opacity: 1; cursor: default;" fill="none" stroke="#303030" d="M372.3333339691162,213L374.7161464691162,212.85416666666669Q377.09895896911615,212.70833333333334,377.7679042816162,212.36197916666669L377.7679042816162,212.36197916666669Q378.4368495941162,212.015625,379.1350917816162,211.34114583333331L379.1350917816162,211.34114583333331Q379.83333396911627,210.66666666666666,380.5315761566162,209.5546875L380.5315761566162,209.5546875Q381.22981834411615,208.44270833333334,381.8987636566162,206.78385416666669L381.8987636566162,206.78385416666669Q382.5677089691162,205.125,383.1780605316162,202.80989583333331L383.1780605316162,202.80989583333331Q383.7884120941162,200.49479166666666,384.3108730316162,197.4140625L384.3108730316162,197.4140625Q384.83333396911615,194.33333333333334,385.2434902191162,190.43229166666669L385.2434902191162,190.43229166666669Q385.6536464691162,186.53125,385.9466152191162,181.97395833333334L385.9466152191162,181.97395833333334Q386.23958396911615,177.41666666666669,386.35434964359126,172.41798395619563L386.59356829464116,161.99868271047106Q386.70833396911627,157,386.59356829464116,152.00131728952894L386.3543496435913,141.58201604380437Q386.2395839691162,136.58333333333331,385.9466152191162,132.02604166666666L385.9466152191162,132.02604166666666Q385.6536464691162,127.46875,385.2434902191162,123.56770833333333L385.2434902191162,123.56770833333333Q384.83333396911615,119.66666666666666,384.3108730316162,116.5859375L384.3108730316162,116.5859375Q383.7884120941162,113.50520833333333,383.1780605316162,111.19010416666666L383.1780605316162,111.19010416666666Q382.56770896911615,108.87499999999999,381.8987636566162,107.21614583333331L381.8987636566162,107.21614583333331Q381.2298183441162,105.55729166666666,380.5315761566162,104.4453125L380.5315761566162,104.4453125Q379.83333396911627,103.33333333333334,379.1350917816162,102.65885416666666L379.1350917816162,102.65885416666666Q378.43684959411615,101.98437499999999,377.7679042816162,101.63802083333331L377.7679042816162,101.63802083333331Q377.0989589691162,101.29166666666666,374.7161464691162,101.14583333333333L372.3333339691162,101" stroke-linecap="round" stroke-linejoin="round" stroke-opacity="1" stroke-width="4" stroke-dasharray="none" opacity="1">
</path>
<path style="stroke-linecap: round; stroke-linejoin: round; opacity: 1; cursor: default;" fill="none" stroke="#f3546a" d="M372.3333339691162,213L374.7161464691162,212.85416666666669Q377.09895896911615,212.70833333333334,377.7679042816162,212.36197916666669L377.7679042816162,212.36197916666669Q378.4368495941162,212.015625,379.1350917816162,211.34114583333331L379.1350917816162,211.34114583333331Q379.83333396911627,210.66666666666666,380.5315761566162,209.5546875L380.5315761566162,209.5546875Q381.22981834411615,208.44270833333334,381.8987636566162,206.78385416666669L381.8987636566162,206.78385416666669Q382.5677089691162,205.125,383.1780605316162,202.80989583333331L383.1780605316162,202.80989583333331Q383.7884120941162,200.49479166666666,384.3108730316162,197.4140625L384.3108730316162,197.4140625Q384.83333396911615,194.33333333333334,385.2434902191162,190.43229166666669L385.2434902191162,190.43229166666669Q385.6536464691162,186.53125,385.9466152191162,181.97395833333334L385.9466152191162,181.97395833333334Q386.23958396911615,177.41666666666669,386.35434964359126,172.41798395619563L386.59356829464116,161.99868271047106Q386.70833396911627,157,386.59356829464116,152.00131728952894L386.3543496435913,141.58201604380437Q386.2395839691162,136.58333333333331,385.9466152191162,132.02604166666666L385.9466152191162,132.02604166666666Q385.6536464691162,127.46875,385.2434902191162,123.56770833333333L385.2434902191162,123.56770833333333Q384.83333396911615,119.66666666666666,384.3108730316162,116.5859375L384.3108730316162,116.5859375Q383.7884120941162,113.50520833333333,383.1780605316162,111.19010416666666L383.1780605316162,111.19010416666666Q382.56770896911615,108.87499999999999,381.8987636566162,107.21614583333331L381.8987636566162,107.21614583333331Q381.2298183441162,105.55729166666666,380.5315761566162,104.4453125L380.5315761566162,104.4453125Q379.83333396911627,103.33333333333334,379.1350917816162,102.65885416666666L379.1350917816162,102.65885416666666Q378.43684959411615,101.98437499999999,377.7679042816162,101.63802083333331L377.7679042816162,101.63802083333331Q377.0989589691162,101.29166666666666,374.7161464691162,101.14583333333333L372.3333339691162,101" class="draw2d_Connection" stroke-linecap="round" stroke-linejoin="round" stroke-opacity="1" stroke-width="3" stroke-dasharray="none" opacity="1">
</path>
<ellipse cx="372.3333339691162" cy="101" rx="5" ry="5" fill="url('#25590-_4F6870-rgba_103_135_146_1_')" stroke="#1b1b1b" class="draw2d_HybridPort" style="cursor: move; opacity: 1; fill-opacity: 1; display: none;" opacity="1" fill-opacity="1" x="372.3333339691162" y="101" stroke-opacity="1" stroke-width="2" stroke-dasharray="none">
</ellipse>
<rect x="300" y="112" width="72.33333396911621" height="22" rx="0" ry="0" fill="#000000" stroke="none" class="ChannelShape" style="opacity: 1;" stroke-width="0" fill-opacity="0" stroke-dasharray="none" opacity="1" transform="matrix(1,0,0,1,0,0)">
</rect>
<text style="text-anchor: start; font-family: &quot;Arial&quot;; font-size: 12px; font-weight: normal; opacity: 1;" x="25" y="10" text-anchor="start" font-family="&quot;Arial&quot;" font-size="12px" stroke="#000000" fill="#4a4a4a" stroke-scale="true" class="ChannelShape" font-weight="normal" fill-opacity="1" stroke-opacity="0" stroke-width="0" opacity="1" transform="matrix(1,0,0,1,300,112)">
<tspan dy="4">ch2</tspan>
</text>
<path style="stroke-linecap: round; stroke-linejoin: round; opacity: 1; cursor: default;" fill="none" stroke="#303030" d="M372.3333339691162,235L374.7161464691162,234.85416666666666Q377.09895896911615,234.70833333333331,377.7679042816162,234.36197916666666L377.7679042816162,234.36197916666666Q378.4368495941162,234.015625,379.1350917816162,233.34114583333334L379.1350917816162,233.34114583333334Q379.83333396911627,232.66666666666669,380.5315761566162,231.5546875L380.5315761566162,231.5546875Q381.22981834411615,230.44270833333331,381.8987636566162,228.78385416666666L381.8987636566162,228.78385416666666Q382.5677089691162,227.125,383.1780605316162,224.80989583333331L383.1780605316162,224.80989583333331Q383.7884120941162,222.49479166666666,384.3108730316162,219.4140625L384.3108730316162,219.4140625Q384.83333396911615,216.33333333333331,385.2434902191162,212.43229166666666L385.2434902191162,212.43229166666666Q385.6536464691162,208.53125,385.9466152191162,203.97395833333331L385.9466152191162,203.97395833333331Q386.23958396911615,199.41666666666666,386.35434964359126,194.4179839561956L386.59356829464116,183.99868271047106Q386.70833396911627,179,386.59356829464116,174.00131728952894L386.3543496435913,163.5820160438044Q386.2395839691162,158.58333333333334,385.9466152191162,154.02604166666669L385.9466152191162,154.02604166666669Q385.6536464691162,149.46875,385.2434902191162,145.56770833333331L385.2434902191162,145.56770833333331Q384.83333396911615,141.66666666666666,384.3108730316162,138.5859375L384.3108730316162,138.5859375Q383.7884120941162,135.50520833333331,383.1780605316162,133.19010416666666L383.1780605316162,133.19010416666666Q382.56770896911615,130.875,381.8987636566162,129.21614583333334L381.8987636566162,129.21614583333334Q381.2298183441162,127.55729166666667,380.5315761566162,126.4453125L380.5315761566162,126.4453125Q379.83333396911627,125.33333333333334,379.1350917816162,124.65885416666667L379.1350917816162,124.65885416666667Q378.43684959411615,123.984375,377.7679042816162,123.63802083333333L377.7679042816162,123.63802083333333Q377.0989589691162,123.29166666666666,374.7161464691162,123.14583333333333L372.3333339691162,123" stroke-linecap="round" stroke-linejoin="round" stroke-opacity="1" stroke-width="4" stroke-dasharray="none" opacity="1">
</path>
<path style="stroke-linecap: round; stroke-linejoin: round; opacity: 1; cursor: default;" fill="none" stroke="#ffff99" d="M372.3333339691162,235L374.7161464691162,234.85416666666666Q377.09895896911615,234.70833333333331,377.7679042816162,234.36197916666666L377.7679042816162,234.36197916666666Q378.4368495941162,234.015625,379.1350917816162,233.34114583333334L379.1350917816162,233.34114583333334Q379.83333396911627,232.66666666666669,380.5315761566162,231.5546875L380.5315761566162,231.5546875Q381.22981834411615,230.44270833333331,381.8987636566162,228.78385416666666L381.8987636566162,228.78385416666666Q382.5677089691162,227.125,383.1780605316162,224.80989583333331L383.1780605316162,224.80989583333331Q383.7884120941162,222.49479166666666,384.3108730316162,219.4140625L384.3108730316162,219.4140625Q384.83333396911615,216.33333333333331,385.2434902191162,212.43229166666666L385.2434902191162,212.43229166666666Q385.6536464691162,208.53125,385.9466152191162,203.97395833333331L385.9466152191162,203.97395833333331Q386.23958396911615,199.41666666666666,386.35434964359126,194.4179839561956L386.59356829464116,183.99868271047106Q386.70833396911627,179,386.59356829464116,174.00131728952894L386.3543496435913,163.5820160438044Q386.2395839691162,158.58333333333334,385.9466152191162,154.02604166666669L385.9466152191162,154.02604166666669Q385.6536464691162,149.46875,385.2434902191162,145.56770833333331L385.2434902191162,145.56770833333331Q384.83333396911615,141.66666666666666,384.3108730316162,138.5859375L384.3108730316162,138.5859375Q383.7884120941162,135.50520833333331,383.1780605316162,133.19010416666666L383.1780605316162,133.19010416666666Q382.56770896911615,130.875,381.8987636566162,129.21614583333334L381.8987636566162,129.21614583333334Q381.2298183441162,127.55729166666667,380.5315761566162,126.4453125L380.5315761566162,126.4453125Q379.83333396911627,125.33333333333334,379.1350917816162,124.65885416666667L379.1350917816162,124.65885416666667Q378.43684959411615,123.984375,377.7679042816162,123.63802083333333L377.7679042816162,123.63802083333333Q377.0989589691162,123.29166666666666,374.7161464691162,123.14583333333333L372.3333339691162,123" class="draw2d_Connection" stroke-linecap="round" stroke-linejoin="round" stroke-opacity="1" stroke-width="3" stroke-dasharray="none" opacity="1">
</path>
<ellipse cx="372.3333339691162" cy="123" rx="5" ry="5" fill="url('#25890-_4F6870-rgba_103_135_146_1_')" stroke="#1b1b1b" class="draw2d_HybridPort" style="cursor: move; opacity: 1; fill-opacity: 1; display: none;" opacity="1" fill-opacity="1" x="372.3333339691162" y="123" stroke-opacity="1" stroke-width="2" stroke-dasharray="none">
</ellipse>
<rect x="300" y="134" width="72.33333396911621" height="22" rx="0" ry="0" fill="#000000" stroke="none" class="ChannelShape" style="opacity: 1;" stroke-width="0" fill-opacity="0" stroke-dasharray="none" opacity="1" transform="matrix(1,0,0,1,0,0)">
</rect>
<text style="text-anchor: start; font-family: &quot;Arial&quot;; font-size: 12px; font-weight: normal; opacity: 1;" x="25" y="10" text-anchor="start" font-family="&quot;Arial&quot;" font-size="12px" stroke="#000000" fill="#4a4a4a" stroke-scale="true" class="ChannelShape" font-weight="normal" fill-opacity="1" stroke-opacity="0" stroke-width="0" opacity="1" transform="matrix(1,0,0,1,300,134)">
<tspan dy="4">ch3</tspan>
</text>
<path style="stroke-linecap: round; stroke-linejoin: round; opacity: 1; cursor: default;" fill="none" stroke="#303030" d="M372.3333339691162,257L374.7161464691162,256.85416666666663Q377.09895896911615,256.7083333333333,377.7679042816162,256.36197916666663L377.7679042816162,256.36197916666663Q378.4368495941162,256.015625,379.1350917816162,255.34114583333334L379.1350917816162,255.34114583333334Q379.83333396911627,254.66666666666669,380.5315761566162,253.5546875L380.5315761566162,253.5546875Q381.22981834411615,252.44270833333331,381.8987636566162,250.78385416666666L381.8987636566162,250.78385416666666Q382.5677089691162,249.125,383.1780605316162,246.80989583333331L383.1780605316162,246.80989583333331Q383.7884120941162,244.49479166666666,384.3108730316162,241.41406249999997L384.3108730316162,241.41406249999997Q384.83333396911615,238.3333333333333,385.2434902191162,234.43229166666663L385.2434902191162,234.43229166666663Q385.6536464691162,230.53124999999997,385.9466152191162,225.97395833333331L385.9466152191162,225.97395833333331Q386.23958396911615,221.41666666666666,386.35434964359126,216.4179839561956L386.59356829464116,205.9986827104711Q386.70833396911627,201.00000000000003,386.59356829464116,196.00131728952897L386.3543496435913,185.58201604380437Q386.2395839691162,180.58333333333331,385.9466152191162,176.02604166666666L385.9466152191162,176.02604166666666Q385.6536464691162,171.46875,385.2434902191162,167.56770833333331L385.2434902191162,167.56770833333331Q384.83333396911615,163.66666666666666,384.3108730316162,160.5859375L384.3108730316162,160.5859375Q383.7884120941162,157.50520833333331,383.1780605316162,155.19010416666663L383.1780605316162,155.19010416666663Q382.56770896911615,152.87499999999997,381.8987636566162,151.21614583333331L381.8987636566162,151.21614583333331Q381.2298183441162,149.55729166666666,380.5315761566162,148.4453125L380.5315761566162,148.4453125Q379.83333396911627,147.33333333333334,379.1350917816162,146.65885416666666L379.1350917816162,146.65885416666666Q378.43684959411615,145.98437499999997,377.7679042816162,145.63802083333331L377.7679042816162,145.63802083333331Q377.0989589691162,145.29166666666666,374.7161464691162,145.14583333333331L372.3333339691162,145" stroke-linecap="round" stroke-linejoin="round" stroke-opacity="1" stroke-width="4" stroke-dasharray="none" opacity="1">
</path>
<path style="stroke-linecap: round; stroke-linejoin: round; opacity: 1; cursor: default;" fill="none" stroke="#00a8f0" d="M372.3333339691162,257L374.7161464691162,256.85416666666663Q377.09895896911615,256.7083333333333,377.7679042816162,256.36197916666663L377.7679042816162,256.36197916666663Q378.4368495941162,256.015625,379.1350917816162,255.34114583333334L379.1350917816162,255.34114583333334Q379.83333396911627,254.66666666666669,380.5315761566162,253.5546875L380.5315761566162,253.5546875Q381.22981834411615,252.44270833333331,381.8987636566162,250.78385416666666L381.8987636566162,250.78385416666666Q382.5677089691162,249.125,383.1780605316162,246.80989583333331L383.1780605316162,246.80989583333331Q383.7884120941162,244.49479166666666,384.3108730316162,241.41406249999997L384.3108730316162,241.41406249999997Q384.83333396911615,238.3333333333333,385.2434902191162,234.43229166666663L385.2434902191162,234.43229166666663Q385.6536464691162,230.53124999999997,385.9466152191162,225.97395833333331L385.9466152191162,225.97395833333331Q386.23958396911615,221.41666666666666,386.35434964359126,216.4179839561956L386.59356829464116,205.9986827104711Q386.70833396911627,201.00000000000003,386.59356829464116,196.00131728952897L386.3543496435913,185.58201604380437Q386.2395839691162,180.58333333333331,385.9466152191162,176.02604166666666L385.9466152191162,176.02604166666666Q385.6536464691162,171.46875,385.2434902191162,167.56770833333331L385.2434902191162,167.56770833333331Q384.83333396911615,163.66666666666666,384.3108730316162,160.5859375L384.3108730316162,160.5859375Q383.7884120941162,157.50520833333331,383.1780605316162,155.19010416666663L383.1780605316162,155.19010416666663Q382.56770896911615,152.87499999999997,381.8987636566162,151.21614583333331L381.8987636566162,151.21614583333331Q381.2298183441162,149.55729166666666,380.5315761566162,148.4453125L380.5315761566162,148.4453125Q379.83333396911627,147.33333333333334,379.1350917816162,146.65885416666666L379.1350917816162,146.65885416666666Q378.43684959411615,145.98437499999997,377.7679042816162,145.63802083333331L377.7679042816162,145.63802083333331Q377.0989589691162,145.29166666666666,374.7161464691162,145.14583333333331L372.3333339691162,145" class="draw2d_Connection" stroke-linecap="round" stroke-linejoin="round" stroke-opacity="1" stroke-width="3" stroke-dasharray="none" opacity="1">
</path>
<ellipse cx="372.3333339691162" cy="145" rx="5" ry="5" fill="url('#26190-_4F6870-rgba_103_135_146_1_')" stroke="#1b1b1b" class="draw2d_HybridPort" style="cursor: move; opacity: 1; fill-opacity: 1; display: none;" opacity="1" fill-opacity="1" x="372.3333339691162" y="145" stroke-opacity="1" stroke-width="2" stroke-dasharray="none">
</ellipse>
<rect x="300" y="156" width="73" height="112" rx="3" ry="3" fill="#dbddde" stroke="none" class="FPGAShapeVertical" style="opacity: 1;" stroke-width="0" fill-opacity="1" stroke-dasharray="none" opacity="1" transform="matrix(1,0,0,1,0,0)">
</rect>
<rect x="300" y="156" width="73" height="24" rx="0" ry="0" fill="#f7f7f7" stroke="none" class="draw2d_shape_basic_Label" style="opacity: 1;" stroke-width="0" fill-opacity="1" stroke-dasharray="none" opacity="1" transform="matrix(1,0,0,1,0,0)">
</rect>
<text style="text-anchor: start; font-family: &quot;Arial&quot;; font-size: 12px; font-weight: normal; opacity: 1;" x="25" y="12" text-anchor="start" font-family="&quot;Arial&quot;" font-size="12px" stroke="#000000" fill="#4a4a4a" stroke-scale="true" class="draw2d_shape_basic_Label" font-weight="normal" fill-opacity="1" stroke-opacity="0" stroke-width="0" opacity="1" transform="matrix(1,0,0,1,300,156)">
<tspan dy="4">acl1</tspan>
</text>
<rect x="300" y="180" width="72.33333396911621" height="22" rx="0" ry="0" fill="#000000" stroke="none" class="ChannelShape" style="opacity: 1;" stroke-width="0" fill-opacity="0" stroke-dasharray="none" opacity="1" transform="matrix(1,0,0,1,0,0)">
</rect>
<text style="text-anchor: start; font-family: &quot;Arial&quot;; font-size: 12px; font-weight: normal; opacity: 1;" x="25" y="10" text-anchor="start" font-family="&quot;Arial&quot;" font-size="12px" stroke="#000000" fill="#4a4a4a" stroke-scale="true" class="ChannelShape" font-weight="normal" fill-opacity="1" stroke-opacity="0" stroke-width="0" opacity="1" transform="matrix(1,0,0,1,300,180)">
<tspan dy="4">ch0</tspan>
</text>
<ellipse cx="372.3333339691162" cy="191" rx="5" ry="5" fill="url('#26790-_4F6870-rgba_103_135_146_1_')" stroke="#1b1b1b" class="draw2d_HybridPort" style="cursor: move; opacity: 1; fill-opacity: 1; display: none;" opacity="1" fill-opacity="1" x="372.3333339691162" y="191" stroke-opacity="1" stroke-width="1" stroke-dasharray="none">
</ellipse>
<rect x="300" y="202" width="72.33333396911621" height="22" rx="0" ry="0" fill="#000000" stroke="none" class="ChannelShape" style="opacity: 1;" stroke-width="0" fill-opacity="0" stroke-dasharray="none" opacity="1" transform="matrix(1,0,0,1,0,0)">
</rect>
<text style="text-anchor: start; font-family: &quot;Arial&quot;; font-size: 12px; font-weight: normal; opacity: 1;" x="25" y="10" text-anchor="start" font-family="&quot;Arial&quot;" font-size="12px" stroke="#000000" fill="#4a4a4a" stroke-scale="true" class="ChannelShape" font-weight="normal" fill-opacity="1" stroke-opacity="0" stroke-width="0" opacity="1" transform="matrix(1,0,0,1,300,202)">
<tspan dy="4">ch1</tspan>
</text>
<ellipse cx="372.3333339691162" cy="213" rx="5" ry="5" fill="url('#27090-_4F6870-rgba_103_135_146_1_')" stroke="#1b1b1b" class="draw2d_HybridPort" style="cursor: move; opacity: 1; fill-opacity: 1; display: none;" opacity="1" fill-opacity="1" x="372.3333339691162" y="213" stroke-opacity="1" stroke-width="1" stroke-dasharray="none">
</ellipse>
<rect x="300" y="224" width="72.33333396911621" height="22" rx="0" ry="0" fill="#000000" stroke="none" class="ChannelShape" style="opacity: 1;" stroke-width="0" fill-opacity="0" stroke-dasharray="none" opacity="1" transform="matrix(1,0,0,1,0,0)">
</rect>
<text style="text-anchor: start; font-family: &quot;Arial&quot;; font-size: 12px; font-weight: normal; opacity: 1;" x="25" y="10" text-anchor="start" font-family="&quot;Arial&quot;" font-size="12px" stroke="#000000" fill="#4a4a4a" stroke-scale="true" class="ChannelShape" font-weight="normal" fill-opacity="1" stroke-opacity="0" stroke-width="0" opacity="1" transform="matrix(1,0,0,1,300,224)">
<tspan dy="4">ch2</tspan>
</text>
<ellipse cx="372.3333339691162" cy="235" rx="5" ry="5" fill="url('#27390-_4F6870-rgba_103_135_146_1_')" stroke="#1b1b1b" class="draw2d_HybridPort" style="cursor: move; opacity: 1; fill-opacity: 1; display: none;" opacity="1" fill-opacity="1" x="372.3333339691162" y="235" stroke-opacity="1" stroke-width="1" stroke-dasharray="none">
</ellipse>
<rect x="300" y="246" width="72.33333396911621" height="22" rx="0" ry="0" fill="#000000" stroke="none" class="ChannelShape" style="opacity: 1;" stroke-width="0" fill-opacity="0" stroke-dasharray="none" opacity="1" transform="matrix(1,0,0,1,0,0)">
</rect>
<text style="text-anchor: start; font-family: &quot;Arial&quot;; font-size: 12px; font-weight: normal; opacity: 1;" x="25" y="10" text-anchor="start" font-family="&quot;Arial&quot;" font-size="12px" stroke="#000000" fill="#4a4a4a" stroke-scale="true" class="ChannelShape" font-weight="normal" fill-opacity="1" stroke-opacity="0" stroke-width="0" opacity="1" transform="matrix(1,0,0,1,300,246)">
<tspan dy="4">ch3</tspan>
</text>
<ellipse cx="372.3333339691162" cy="257" rx="5" ry="5" fill="url('#27690-_4F6870-rgba_103_135_146_1_')" stroke="#1b1b1b" class="draw2d_HybridPort" style="cursor: move; opacity: 1; fill-opacity: 1; display: none;" opacity="1" fill-opacity="1" x="372.3333339691162" y="257" stroke-opacity="1" stroke-width="1" stroke-dasharray="none">
</ellipse>
</svg>
